<svg width="160" height="38" viewBox="0 0 160 38" fill="none" xmlns="http://www.w3.org/2000/svg">
<path d="M34.6212 35.1383C34.6212 36.2995 33.6799 37.2408 32.5188 37.2408H21.481L21.481 24.1005L34.6212 24.1005V35.1383Z" fill="#216A74"/>
<path d="M2.573e-06 4.7016C2.573e-06 3.54046 0.941295 2.59917 2.10244 2.59917H13.1402V15.7394H2.573e-06V4.7016Z" fill="#216A74"/>
<path d="M2.10244 37.2408C0.941292 37.2408 5.33232e-07 36.2995 4.82477e-07 35.1383L0 24.1005H13.1402L13.1402 37.2408H2.10244Z" fill="#216A74"/>
<path d="M32.5653 5.60207C29.717 5.60207 27.4079 7.86656 27.4079 10.6599C27.4079 13.4533 29.717 15.7178 32.5653 15.7178C35.4137 15.7178 37.7227 13.4533 37.7227 10.6599C37.7227 7.86656 35.4137 5.60207 32.5653 5.60207Z" fill="#FF5A5F"/>
<path d="M26.6548 0C23.7974 -1.24901e-07 21.481 2.26448 21.481 5.05787C21.481 7.85125 23.7974 10.1157 26.6548 10.1157C29.5122 10.1157 31.8286 7.85125 31.8286 5.05787C31.8286 2.26449 29.5122 1.24901e-07 26.6548 0Z" fill="#FF5A5F"/>
<path d="M32.549 15.7178L27.7702 9.55953L21.481 5.05787V15.7178H32.549Z" fill="#FF5A5F"/>
<path d="M52.0061 37.2408V2.97099H72.6885V6.65231H56.156V18.2318H71.6176V21.9131H56.156V33.5595H72.9562V37.2408H52.0061Z" fill="#216A74"/>
<path d="M99.2362 11.5384L89.7317 37.2408H85.7157L76.2112 11.5384H80.4949L87.5898 32.02H87.8576L94.9525 11.5384H99.2362Z" fill="#FF5A5F"/>
<path d="M103.035 37.2408V11.5384H106.984V37.2408H103.035ZM105.043 7.25471C104.273 7.25471 103.61 6.99256 103.052 6.46824C102.505 5.94394 102.232 5.31365 102.232 4.57738C102.232 3.84112 102.505 3.21083 103.052 2.68652C103.61 2.16221 104.273 1.90006 105.043 1.90006C105.813 1.90006 106.471 2.16221 107.018 2.68652C107.575 3.21083 107.854 3.84112 107.854 4.57738C107.854 5.31365 107.575 5.94394 107.018 6.46824C106.471 6.99256 105.813 7.25471 105.043 7.25471Z" fill="#216A74"/>
<path d="M122.509 37.7762C120.367 37.7762 118.476 37.2352 116.836 36.1531C115.196 35.0599 113.913 33.5204 112.987 31.5347C112.062 29.5379 111.599 27.1785 111.599 24.4565C111.599 21.7569 112.062 19.4142 112.987 17.4286C113.913 15.4429 115.202 13.909 116.853 12.8269C118.504 11.7448 120.411 11.2038 122.576 11.2038C124.249 11.2038 125.571 11.4827 126.541 12.0404C127.523 12.5871 128.271 13.2118 128.784 13.9146C129.308 14.6062 129.715 15.1751 130.005 15.6214H130.34V2.97099H134.289V37.2408H130.474V33.2917H130.005C129.715 33.7603 129.302 34.3515 128.767 35.0655C128.232 35.7683 127.467 36.3985 126.475 36.9563C125.482 37.5029 124.16 37.7762 122.509 37.7762ZM123.044 34.2288C124.628 34.2288 125.967 33.816 127.06 32.9905C128.153 32.1539 128.985 30.9993 129.553 29.5267C130.122 28.043 130.407 26.3307 130.407 24.3896C130.407 22.4709 130.128 20.7919 129.57 19.3529C129.012 17.9027 128.187 16.776 127.094 15.9728C126 15.1584 124.651 14.7512 123.044 14.7512C121.371 14.7512 119.976 15.1807 118.861 16.0397C117.756 16.8875 116.925 18.0421 116.368 19.5035C115.821 20.9537 115.548 22.5824 115.548 24.3896C115.548 26.2191 115.827 27.8813 116.384 29.3761C116.953 30.8598 117.79 32.0423 118.894 32.9236C120.01 33.7937 121.393 34.2288 123.044 34.2288Z" fill="#216A74"/>
<path d="M148.22 37.8432C146.591 37.8432 145.113 37.5364 143.785 36.9228C142.458 36.2981 141.404 35.4001 140.623 34.2288C139.842 33.0463 139.452 31.6184 139.452 29.9451C139.452 28.4725 139.742 27.2789 140.322 26.3641C140.902 25.4382 141.677 24.7131 142.648 24.1888C143.618 23.6645 144.689 23.2741 145.86 23.0175C147.043 22.7497 148.231 22.5378 149.425 22.3816C150.986 22.1808 152.252 22.0302 153.223 21.9298C154.205 21.8183 154.919 21.6342 155.365 21.3776C155.822 21.121 156.051 20.6748 156.051 20.0389V19.9051C156.051 18.2541 155.599 16.9712 154.696 16.0564C153.803 15.1417 152.448 14.6843 150.629 14.6843C148.744 14.6843 147.266 15.097 146.195 15.9226C145.124 16.7481 144.371 17.6294 143.936 18.5664L140.188 17.2278C140.857 15.666 141.75 14.45 142.865 13.5799C143.992 12.6986 145.219 12.0851 146.546 11.7392C147.885 11.3823 149.201 11.2038 150.495 11.2038C151.321 11.2038 152.269 11.3042 153.34 11.505C154.422 11.6946 155.465 12.0906 156.469 12.693C157.484 13.2954 158.327 14.2046 158.996 15.4206C159.665 16.6365 160 18.2652 160 20.3067V37.2408H156.051V33.7603H155.85C155.582 34.318 155.136 34.9149 154.511 35.5507C153.887 36.1866 153.056 36.7276 152.018 37.1738C150.981 37.6201 149.715 37.8432 148.22 37.8432ZM148.822 34.2957C150.384 34.2957 151.7 33.9889 152.771 33.3754C153.853 32.7618 154.668 31.9698 155.214 30.9993C155.772 30.0287 156.051 29.008 156.051 27.9371V24.3227C155.884 24.5235 155.515 24.7075 154.947 24.8749C154.389 25.031 153.742 25.1705 153.005 25.2932C152.28 25.4048 151.572 25.5052 150.88 25.5944C150.2 25.6725 149.648 25.7394 149.224 25.7952C148.197 25.9291 147.238 26.1466 146.346 26.4478C145.464 26.7378 144.75 27.1785 144.204 27.7697C143.668 28.3498 143.401 29.1419 143.401 30.1459C143.401 31.518 143.908 32.5555 144.923 33.2583C145.95 33.9499 147.249 34.2957 148.822 34.2957Z" fill="#216A74"/>
</svg>
