<svg width="416" height="296" viewBox="0 0 416 296" fill="none" xmlns="http://www.w3.org/2000/svg">
<path d="M208.01 167.301V44.686" stroke="white" stroke-opacity="0.4" stroke-width="0.929915"/>
<path d="M208.01 167.301L324.778 129.411" stroke="white" stroke-opacity="0.4" stroke-width="0.929915"/>
<path d="M208.01 167.301L280.177 266.499" stroke="white" stroke-opacity="0.4" stroke-width="0.929915"/>
<path d="M208.013 167.301L135.846 266.499" stroke="white" stroke-opacity="0.4" stroke-width="0.929915"/>
<path d="M207.998 167.301L91.2292 129.411" stroke="white" stroke-opacity="0.4" stroke-width="0.929915"/>
<path d="M203.647 139.295C206.248 137.408 209.768 137.408 212.369 139.295L233.625 154.718C236.231 156.609 237.321 159.964 236.325 163.025L228.21 187.968C227.215 191.026 224.365 193.096 221.149 193.096H194.867C191.651 193.096 188.801 191.026 187.806 187.968L179.691 163.025C178.695 159.964 179.786 156.609 182.391 154.718L203.647 139.295Z" stroke="white" stroke-opacity="0.4" stroke-width="0.955265"/>
<path d="M199.291 110.969C204.493 107.195 211.532 107.195 216.734 110.969L259.246 141.815C264.458 145.597 266.639 152.306 264.647 158.43L248.417 208.315C246.427 214.431 240.726 218.571 234.295 218.571H181.731C175.299 218.571 169.599 214.431 167.609 208.315L151.379 158.43C149.387 152.306 151.568 145.597 156.779 141.815L199.291 110.969Z" stroke="white" stroke-opacity="0.4" stroke-width="0.955265"/>
<path d="M199.271 79.4809C204.473 75.7066 211.512 75.7066 216.714 79.4809L289.213 132.085C294.425 135.867 296.606 142.577 294.614 148.7L266.93 233.791C264.94 239.907 259.239 244.047 252.808 244.047H163.177C156.745 244.047 151.045 239.907 149.055 233.791L121.37 148.7C119.378 142.577 121.559 135.867 126.771 132.085L199.271 79.4809Z" stroke="white" stroke-opacity="0.4" stroke-width="0.955265"/>
<path d="M199.275 47.9912C204.477 44.2169 211.517 44.2169 216.718 47.9912L319.206 122.354C324.418 126.136 326.599 132.845 324.607 138.969L285.468 259.266C283.478 265.382 277.777 269.522 271.346 269.522H144.648C138.216 269.522 132.516 265.382 130.526 259.266L91.3871 138.969C89.3949 132.845 91.5759 126.136 96.7877 122.354L199.275 47.9912Z" stroke="white" stroke-opacity="0.4" stroke-width="0.955265"/>
<path d="M198.734 21.2168C198.685 20.8043 198.487 20.4841 198.14 20.2561C197.792 20.0282 197.366 19.9142 196.862 19.9142C196.492 19.9142 196.17 19.9739 195.893 20.0933C195.619 20.2127 195.404 20.3769 195.25 20.5859C195.098 20.7948 195.022 21.0323 195.022 21.2983C195.022 21.5208 195.074 21.7121 195.18 21.8722C195.289 22.0296 195.427 22.1612 195.596 22.2671C195.764 22.3702 195.94 22.4557 196.125 22.5235C196.309 22.5887 196.479 22.6416 196.634 22.6823L197.48 22.9103C197.697 22.9673 197.939 23.046 198.205 23.1464C198.474 23.2468 198.73 23.3838 198.974 23.5575C199.221 23.7285 199.425 23.9483 199.585 24.217C199.745 24.4856 199.825 24.8154 199.825 25.2062C199.825 25.6566 199.707 26.0637 199.471 26.4274C199.237 26.791 198.896 27.08 198.445 27.2944C197.997 27.5088 197.453 27.616 196.813 27.616C196.216 27.616 195.699 27.5197 195.262 27.327C194.828 27.1343 194.486 26.8657 194.236 26.521C193.989 26.1763 193.849 25.7761 193.817 25.3201H194.859C194.886 25.6349 194.992 25.8955 195.176 26.1017C195.364 26.3053 195.6 26.4572 195.885 26.5576C196.172 26.6553 196.482 26.7042 196.813 26.7042C197.198 26.7042 197.544 26.6418 197.851 26.5169C198.157 26.3894 198.4 26.213 198.579 25.9877C198.759 25.7598 198.848 25.4938 198.848 25.1899C198.848 24.9131 198.771 24.6878 198.616 24.5141C198.461 24.3404 198.258 24.1993 198.005 24.0908C197.753 23.9822 197.48 23.8872 197.187 23.8058L196.161 23.5127C195.51 23.3255 194.994 23.0582 194.615 22.7108C194.235 22.3634 194.045 21.9089 194.045 21.3471C194.045 20.8803 194.171 20.4733 194.423 20.1259C194.678 19.7758 195.02 19.5044 195.449 19.3117C195.881 19.1163 196.362 19.0186 196.894 19.0186C197.431 19.0186 197.909 19.115 198.327 19.3077C198.745 19.4976 199.076 19.7582 199.32 20.0892C199.567 20.4203 199.697 20.7962 199.711 21.2168H198.734ZM203.845 21.2168V22.031H200.604V21.2168H203.845ZM201.549 19.7188H202.509V25.6784C202.509 25.9497 202.549 26.1533 202.627 26.289C202.709 26.4219 202.812 26.5115 202.937 26.5576C203.064 26.6011 203.199 26.6228 203.34 26.6228C203.446 26.6228 203.533 26.6173 203.6 26.6065C203.668 26.5929 203.722 26.5821 203.763 26.5739L203.959 27.4369C203.893 27.4613 203.803 27.4858 203.686 27.5102C203.569 27.5373 203.421 27.5509 203.242 27.5509C202.971 27.5509 202.705 27.4925 202.444 27.3759C202.186 27.2592 201.972 27.0814 201.801 26.8426C201.633 26.6038 201.549 26.3025 201.549 25.9389V19.7188ZM207.615 27.5997C207.012 27.5997 206.493 27.4668 206.056 27.2008C205.622 26.9321 205.286 26.5576 205.05 26.0773C204.817 25.5942 204.7 25.0325 204.7 24.392C204.7 23.7515 204.817 23.1871 205.05 22.6986C205.286 22.2074 205.615 21.8247 206.035 21.5506C206.459 21.2738 206.953 21.1354 207.517 21.1354C207.843 21.1354 208.164 21.1897 208.482 21.2983C208.799 21.4068 209.088 21.5832 209.349 21.8274C209.609 22.069 209.817 22.3892 209.972 22.7881C210.126 23.1871 210.204 23.6783 210.204 24.2617V24.6688H205.384V23.8384H209.227C209.227 23.4856 209.156 23.1708 209.015 22.894C208.877 22.6172 208.679 22.3987 208.421 22.2386C208.166 22.0785 207.865 21.9984 207.517 21.9984C207.134 21.9984 206.803 22.0934 206.524 22.2834C206.247 22.4706 206.034 22.7149 205.885 23.0161C205.736 23.3173 205.661 23.6403 205.661 23.9849V24.5386C205.661 25.0108 205.742 25.411 205.905 25.7394C206.071 26.0651 206.3 26.3134 206.593 26.4844C206.886 26.6526 207.227 26.7368 207.615 26.7368C207.867 26.7368 208.095 26.7015 208.299 26.6309C208.505 26.5576 208.683 26.4491 208.832 26.3053C208.981 26.1587 209.097 25.9769 209.178 25.7598L210.106 26.0203C210.008 26.3351 209.844 26.6119 209.614 26.8507C209.383 27.0868 209.098 27.2714 208.759 27.4044C208.419 27.5346 208.038 27.5997 207.615 27.5997ZM211.436 29.8142V21.2168H212.364V22.2101H212.478C212.549 22.1015 212.646 21.9631 212.771 21.7949C212.899 21.6239 213.081 21.4719 213.317 21.339C213.555 21.2033 213.878 21.1354 214.285 21.1354C214.812 21.1354 215.276 21.267 215.678 21.5303C216.079 21.7935 216.393 22.1667 216.618 22.6497C216.843 23.1328 216.956 23.7027 216.956 24.3594C216.956 25.0216 216.843 25.5956 216.618 26.0814C216.393 26.5644 216.081 26.9389 215.682 27.2049C215.283 27.4681 214.823 27.5997 214.302 27.5997C213.9 27.5997 213.579 27.5333 213.337 27.4003C213.095 27.2646 212.91 27.1113 212.779 26.9403C212.649 26.7666 212.549 26.6228 212.478 26.5088H212.397V29.8142H211.436ZM212.38 24.3432C212.38 24.8154 212.45 25.2319 212.588 25.5929C212.726 25.9511 212.929 26.232 213.195 26.4355C213.46 26.6363 213.786 26.7368 214.171 26.7368C214.573 26.7368 214.908 26.6309 215.177 26.4192C215.448 26.2048 215.652 25.9172 215.788 25.5562C215.926 25.1926 215.995 24.7882 215.995 24.3432C215.995 23.9035 215.927 23.5073 215.792 23.1545C215.659 22.799 215.456 22.5181 215.185 22.3119C214.916 22.1029 214.579 21.9984 214.171 21.9984C213.781 21.9984 213.452 22.0975 213.186 22.2956C212.92 22.491 212.72 22.7651 212.584 23.1179C212.448 23.468 212.38 23.8764 212.38 24.3432ZM222.621 22.6172L221.758 22.8614C221.704 22.7176 221.624 22.5778 221.518 22.4421C221.415 22.3037 221.274 22.1897 221.094 22.1002C220.915 22.0106 220.686 21.9659 220.407 21.9659C220.024 21.9659 219.705 22.0541 219.45 22.2305C219.198 22.4041 219.071 22.6253 219.071 22.894C219.071 23.1328 219.158 23.3214 219.332 23.4598C219.506 23.5982 219.777 23.7136 220.146 23.8058L221.074 24.0338C221.633 24.1695 222.05 24.3771 222.324 24.6566C222.598 24.9334 222.735 25.2903 222.735 25.7272C222.735 26.0854 222.632 26.4057 222.426 26.6879C222.222 26.9701 221.937 27.1927 221.571 27.3555C221.204 27.5183 220.778 27.5997 220.293 27.5997C219.655 27.5997 219.127 27.4613 218.709 27.1845C218.291 26.9077 218.027 26.5034 217.915 25.9715L218.827 25.7435C218.914 26.08 219.078 26.3324 219.32 26.5006C219.564 26.6689 219.883 26.753 220.276 26.753C220.724 26.753 221.08 26.658 221.343 26.4681C221.609 26.2754 221.742 26.0447 221.742 25.7761C221.742 25.559 221.666 25.3771 221.514 25.2306C221.362 25.0813 221.128 24.9701 220.814 24.8968L219.772 24.6525C219.199 24.5168 218.778 24.3065 218.51 24.0216C218.244 23.7339 218.111 23.3743 218.111 22.9428C218.111 22.59 218.21 22.2779 218.408 22.0066C218.609 21.7352 218.881 21.5221 219.226 21.3675C219.573 21.2128 219.967 21.1354 220.407 21.1354C221.025 21.1354 221.511 21.2711 221.864 21.5425C222.219 21.8139 222.472 22.1721 222.621 22.6172Z" fill="white"/>
<path d="M347.822 119.48C347.773 119.067 347.575 118.747 347.227 118.519C346.88 118.291 346.454 118.177 345.949 118.177C345.58 118.177 345.257 118.237 344.98 118.356C344.706 118.476 344.492 118.64 344.337 118.849C344.185 119.058 344.109 119.295 344.109 119.561C344.109 119.784 344.162 119.975 344.268 120.135C344.376 120.293 344.515 120.424 344.683 120.53C344.851 120.633 345.028 120.719 345.212 120.786C345.397 120.852 345.567 120.905 345.721 120.945L346.568 121.173C346.785 121.23 347.027 121.309 347.292 121.409C347.561 121.51 347.818 121.647 348.062 121.82C348.309 121.991 348.512 122.211 348.672 122.48C348.833 122.749 348.913 123.078 348.913 123.469C348.913 123.92 348.795 124.327 348.558 124.69C348.325 125.054 347.983 125.343 347.533 125.557C347.085 125.772 346.541 125.879 345.9 125.879C345.303 125.879 344.786 125.783 344.349 125.59C343.915 125.397 343.573 125.129 343.324 124.784C343.077 124.439 342.937 124.039 342.904 123.583H343.946C343.973 123.898 344.079 124.158 344.264 124.365C344.451 124.568 344.687 124.72 344.972 124.821C345.26 124.918 345.569 124.967 345.9 124.967C346.286 124.967 346.632 124.905 346.938 124.78C347.245 124.652 347.488 124.476 347.667 124.251C347.846 124.023 347.936 123.757 347.936 123.453C347.936 123.176 347.858 122.951 347.704 122.777C347.549 122.603 347.345 122.462 347.093 122.354C346.841 122.245 346.568 122.15 346.275 122.069L345.249 121.776C344.598 121.588 344.082 121.321 343.702 120.974C343.322 120.626 343.132 120.172 343.132 119.61C343.132 119.143 343.258 118.736 343.511 118.389C343.766 118.039 344.108 117.767 344.537 117.575C344.968 117.379 345.45 117.282 345.982 117.282C346.519 117.282 346.997 117.378 347.415 117.571C347.833 117.761 348.164 118.021 348.408 118.352C348.655 118.683 348.785 119.059 348.799 119.48H347.822ZM351.174 117.396V125.732H350.213V117.396H351.174ZM355.326 125.863C354.723 125.863 354.203 125.73 353.766 125.464C353.332 125.195 352.997 124.821 352.761 124.34C352.528 123.857 352.411 123.295 352.411 122.655C352.411 122.014 352.528 121.45 352.761 120.962C352.997 120.47 353.325 120.088 353.746 119.814C354.169 119.537 354.663 119.398 355.228 119.398C355.553 119.398 355.875 119.453 356.193 119.561C356.51 119.67 356.799 119.846 357.06 120.09C357.32 120.332 357.528 120.652 357.682 121.051C357.837 121.45 357.915 121.941 357.915 122.525V122.932H353.095V122.101H356.938C356.938 121.749 356.867 121.434 356.726 121.157C356.587 120.88 356.389 120.662 356.132 120.502C355.876 120.341 355.575 120.261 355.228 120.261C354.845 120.261 354.514 120.356 354.235 120.546C353.958 120.734 353.745 120.978 353.595 121.279C353.446 121.58 353.372 121.903 353.372 122.248V122.801C353.372 123.274 353.453 123.674 353.616 124.002C353.781 124.328 354.011 124.576 354.304 124.747C354.597 124.916 354.937 125 355.326 125C355.578 125 355.806 124.964 356.009 124.894C356.216 124.821 356.393 124.712 356.543 124.568C356.692 124.422 356.807 124.24 356.889 124.023L357.817 124.283C357.719 124.598 357.555 124.875 357.324 125.114C357.094 125.35 356.809 125.534 356.469 125.667C356.13 125.798 355.749 125.863 355.326 125.863ZM361.768 125.863C361.166 125.863 360.646 125.73 360.209 125.464C359.775 125.195 359.44 124.821 359.204 124.34C358.97 123.857 358.854 123.295 358.854 122.655C358.854 122.014 358.97 121.45 359.204 120.962C359.44 120.47 359.768 120.088 360.189 119.814C360.612 119.537 361.106 119.398 361.67 119.398C361.996 119.398 362.318 119.453 362.635 119.561C362.953 119.67 363.242 119.846 363.502 120.09C363.763 120.332 363.97 120.652 364.125 121.051C364.28 121.45 364.357 121.941 364.357 122.525V122.932H359.537V122.101H363.38C363.38 121.749 363.31 121.434 363.169 121.157C363.03 120.88 362.832 120.662 362.574 120.502C362.319 120.341 362.018 120.261 361.67 120.261C361.288 120.261 360.957 120.356 360.677 120.546C360.4 120.734 360.187 120.978 360.038 121.279C359.889 121.58 359.814 121.903 359.814 122.248V122.801C359.814 123.274 359.896 123.674 360.058 124.002C360.224 124.328 360.453 124.576 360.746 124.747C361.04 124.916 361.38 125 361.768 125C362.021 125 362.249 124.964 362.452 124.894C362.658 124.821 362.836 124.712 362.985 124.568C363.135 124.422 363.25 124.24 363.331 124.023L364.259 124.283C364.162 124.598 363.998 124.875 363.767 125.114C363.536 125.35 363.251 125.534 362.912 125.667C362.573 125.798 362.192 125.863 361.768 125.863ZM365.589 128.077V119.48H366.517V120.473H366.631C366.702 120.364 366.8 120.226 366.924 120.058C367.052 119.887 367.234 119.735 367.47 119.602C367.709 119.466 368.032 119.398 368.439 119.398C368.965 119.398 369.429 119.53 369.831 119.793C370.233 120.056 370.546 120.43 370.771 120.913C370.997 121.396 371.109 121.966 371.109 122.622C371.109 123.285 370.997 123.859 370.771 124.344C370.546 124.827 370.234 125.202 369.835 125.468C369.436 125.731 368.976 125.863 368.455 125.863C368.053 125.863 367.732 125.796 367.49 125.663C367.249 125.528 367.063 125.374 366.933 125.203C366.802 125.03 366.702 124.886 366.631 124.772H366.55V128.077H365.589ZM366.534 122.606C366.534 123.078 366.603 123.495 366.741 123.856C366.88 124.214 367.082 124.495 367.348 124.698C367.614 124.899 367.939 125 368.325 125C368.726 125 369.062 124.894 369.33 124.682C369.602 124.468 369.805 124.18 369.941 123.819C370.079 123.456 370.149 123.051 370.149 122.606C370.149 122.166 370.081 121.77 369.945 121.417C369.812 121.062 369.61 120.781 369.338 120.575C369.07 120.366 368.732 120.261 368.325 120.261C367.934 120.261 367.606 120.36 367.34 120.559C367.074 120.754 366.873 121.028 366.737 121.381C366.602 121.731 366.534 122.139 366.534 122.606Z" fill="white"/>
<path d="M292.641 283.16C292.592 282.747 292.394 282.427 292.047 282.199C291.699 281.971 291.273 281.857 290.768 281.857C290.399 281.857 290.076 281.917 289.8 282.036C289.526 282.156 289.311 282.32 289.156 282.529C289.005 282.738 288.929 282.975 288.929 283.241C288.929 283.464 288.981 283.655 289.087 283.815C289.196 283.973 289.334 284.104 289.502 284.21C289.671 284.313 289.847 284.399 290.032 284.467C290.216 284.532 290.386 284.585 290.541 284.625L291.387 284.853C291.604 284.91 291.846 284.989 292.112 285.089C292.38 285.19 292.637 285.327 292.881 285.501C293.128 285.672 293.332 285.891 293.492 286.16C293.652 286.429 293.732 286.758 293.732 287.149C293.732 287.6 293.614 288.007 293.378 288.37C293.144 288.734 292.802 289.023 292.352 289.238C291.904 289.452 291.36 289.559 290.72 289.559C290.123 289.559 289.606 289.463 289.169 289.27C288.734 289.077 288.393 288.809 288.143 288.464C287.896 288.119 287.756 287.719 287.724 287.263H288.766C288.793 287.578 288.899 287.839 289.083 288.045C289.27 288.248 289.507 288.4 289.792 288.501C290.079 288.598 290.389 288.647 290.72 288.647C291.105 288.647 291.451 288.585 291.758 288.46C292.064 288.332 292.307 288.156 292.486 287.931C292.665 287.703 292.755 287.437 292.755 287.133C292.755 286.856 292.678 286.631 292.523 286.457C292.368 286.284 292.165 286.142 291.912 286.034C291.66 285.925 291.387 285.83 291.094 285.749L290.068 285.456C289.417 285.269 288.901 285.001 288.521 284.654C288.142 284.307 287.952 283.852 287.952 283.29C287.952 282.823 288.078 282.416 288.33 282.069C288.585 281.719 288.927 281.448 289.356 281.255C289.787 281.059 290.269 280.962 290.801 280.962C291.338 280.962 291.816 281.058 292.234 281.251C292.652 281.441 292.983 281.701 293.227 282.032C293.474 282.363 293.604 282.739 293.618 283.16H292.641ZM297.752 283.16V283.974H294.511V283.16H297.752ZM295.456 281.662H296.416V287.621C296.416 287.893 296.456 288.096 296.534 288.232C296.616 288.365 296.719 288.455 296.844 288.501C296.971 288.544 297.106 288.566 297.247 288.566C297.353 288.566 297.439 288.56 297.507 288.55C297.575 288.536 297.629 288.525 297.67 288.517L297.866 289.38C297.8 289.404 297.709 289.429 297.593 289.453C297.476 289.48 297.328 289.494 297.149 289.494C296.878 289.494 296.612 289.436 296.351 289.319C296.093 289.202 295.879 289.025 295.708 288.786C295.54 288.547 295.456 288.246 295.456 287.882V281.662ZM298.967 289.413V283.16H299.896V284.104H299.961C300.075 283.795 300.281 283.544 300.579 283.351C300.878 283.159 301.214 283.062 301.589 283.062C301.66 283.062 301.748 283.064 301.854 283.066C301.959 283.069 302.039 283.073 302.094 283.079V284.056C302.061 284.047 301.987 284.035 301.87 284.019C301.756 284 301.635 283.99 301.508 283.99C301.204 283.99 300.932 284.054 300.693 284.182C300.457 284.307 300.27 284.48 300.132 284.703C299.996 284.923 299.928 285.174 299.928 285.456V289.413H298.967ZM305.434 289.543C304.832 289.543 304.312 289.41 303.875 289.144C303.441 288.875 303.106 288.501 302.87 288.02C302.637 287.537 302.52 286.976 302.52 286.335C302.52 285.695 302.637 285.13 302.87 284.642C303.106 284.15 303.434 283.768 303.855 283.494C304.278 283.217 304.772 283.079 305.337 283.079C305.662 283.079 305.984 283.133 306.302 283.241C306.619 283.35 306.908 283.526 307.169 283.771C307.429 284.012 307.637 284.332 307.791 284.731C307.946 285.13 308.023 285.621 308.023 286.205V286.612H303.204V285.782H307.046C307.046 285.429 306.976 285.114 306.835 284.837C306.696 284.56 306.498 284.342 306.24 284.182C305.985 284.022 305.684 283.942 305.337 283.942C304.954 283.942 304.623 284.037 304.344 284.226C304.067 284.414 303.854 284.658 303.704 284.959C303.555 285.26 303.481 285.583 303.481 285.928V286.482C303.481 286.954 303.562 287.354 303.725 287.683C303.89 288.008 304.12 288.257 304.413 288.427C304.706 288.596 305.046 288.68 305.434 288.68C305.687 288.68 305.915 288.645 306.118 288.574C306.325 288.501 306.502 288.392 306.652 288.248C306.801 288.102 306.916 287.92 306.998 287.703L307.926 287.963C307.828 288.278 307.664 288.555 307.433 288.794C307.203 289.03 306.918 289.214 306.578 289.347C306.239 289.478 305.858 289.543 305.434 289.543ZM313.685 284.56L312.822 284.805C312.767 284.661 312.687 284.521 312.581 284.385C312.478 284.247 312.337 284.133 312.158 284.043C311.979 283.954 311.75 283.909 311.47 283.909C311.087 283.909 310.769 283.997 310.513 284.174C310.261 284.347 310.135 284.568 310.135 284.837C310.135 285.076 310.222 285.265 310.395 285.403C310.569 285.541 310.84 285.657 311.21 285.749L312.138 285.977C312.697 286.113 313.113 286.32 313.387 286.6C313.661 286.877 313.799 287.233 313.799 287.67C313.799 288.029 313.695 288.349 313.489 288.631C313.286 288.913 313.001 289.136 312.634 289.299C312.268 289.461 311.842 289.543 311.356 289.543C310.718 289.543 310.191 289.404 309.773 289.128C309.355 288.851 309.09 288.446 308.979 287.915L309.891 287.687C309.977 288.023 310.142 288.276 310.383 288.444C310.627 288.612 310.946 288.696 311.34 288.696C311.788 288.696 312.143 288.601 312.406 288.411C312.672 288.219 312.805 287.988 312.805 287.719C312.805 287.502 312.729 287.32 312.577 287.174C312.425 287.024 312.192 286.913 311.877 286.84L310.835 286.596C310.262 286.46 309.842 286.25 309.573 285.965C309.307 285.677 309.174 285.317 309.174 284.886C309.174 284.533 309.273 284.221 309.471 283.95C309.672 283.678 309.945 283.465 310.29 283.311C310.637 283.156 311.03 283.079 311.47 283.079C312.089 283.079 312.575 283.214 312.927 283.486C313.283 283.757 313.535 284.115 313.685 284.56ZM319.444 284.56L318.581 284.805C318.527 284.661 318.447 284.521 318.341 284.385C318.238 284.247 318.097 284.133 317.918 284.043C317.739 283.954 317.509 283.909 317.23 283.909C316.847 283.909 316.528 283.997 316.273 284.174C316.021 284.347 315.895 284.568 315.895 284.837C315.895 285.076 315.982 285.265 316.155 285.403C316.329 285.541 316.6 285.657 316.969 285.749L317.897 285.977C318.457 286.113 318.873 286.32 319.147 286.6C319.421 286.877 319.558 287.233 319.558 287.67C319.558 288.029 319.455 288.349 319.249 288.631C319.045 288.913 318.76 289.136 318.394 289.299C318.028 289.461 317.602 289.543 317.116 289.543C316.478 289.543 315.95 289.404 315.532 289.128C315.114 288.851 314.85 288.446 314.739 287.915L315.65 287.687C315.737 288.023 315.901 288.276 316.143 288.444C316.387 288.612 316.706 288.696 317.1 288.696C317.547 288.696 317.903 288.601 318.166 288.411C318.432 288.219 318.565 287.988 318.565 287.719C318.565 287.502 318.489 287.32 318.337 287.174C318.185 287.024 317.952 286.913 317.637 286.84L316.595 286.596C316.022 286.46 315.602 286.25 315.333 285.965C315.067 285.677 314.934 285.317 314.934 284.886C314.934 284.533 315.033 284.221 315.231 283.95C315.432 283.678 315.705 283.465 316.049 283.311C316.397 283.156 316.79 283.079 317.23 283.079C317.849 283.079 318.334 283.214 318.687 283.486C319.043 283.757 319.295 284.115 319.444 284.56Z" fill="white"/>
<path d="M72.1288 289.413V281.076H74.9457C75.5971 281.076 76.1317 281.187 76.5496 281.41C76.9675 281.629 77.2769 281.932 77.4777 282.317C77.6786 282.703 77.779 283.141 77.779 283.632C77.779 284.123 77.6786 284.559 77.4777 284.939C77.2769 285.319 76.9689 285.617 76.5537 285.834C76.1385 286.049 75.6079 286.156 74.962 286.156H72.6824V285.244H74.9295C75.3745 285.244 75.7328 285.179 76.0041 285.049C76.2782 284.919 76.4763 284.734 76.5985 284.495C76.7233 284.254 76.7857 283.966 76.7857 283.632C76.7857 283.298 76.7233 283.007 76.5985 282.757C76.4736 282.507 76.2742 282.315 76.0001 282.179C75.726 282.041 75.3637 281.971 74.9132 281.971H73.1383V289.413H72.1288ZM76.053 285.668L78.1046 289.413H76.9323L74.9132 285.668H76.053ZM81.6561 289.543C81.0536 289.543 80.5339 289.41 80.097 289.144C79.6628 288.875 79.3276 288.501 79.0915 288.02C78.8581 287.537 78.7414 286.976 78.7414 286.335C78.7414 285.695 78.8581 285.13 79.0915 284.642C79.3276 284.15 79.656 283.768 80.0766 283.494C80.5 283.217 80.9939 283.079 81.5584 283.079C81.884 283.079 82.2056 283.133 82.5231 283.241C82.8406 283.35 83.1297 283.526 83.3902 283.771C83.6507 284.012 83.8583 284.332 84.013 284.731C84.1677 285.13 84.245 285.621 84.245 286.205V286.612H79.4253V285.782H83.2681C83.2681 285.429 83.1975 285.114 83.0564 284.837C82.918 284.56 82.7199 284.342 82.4621 284.182C82.207 284.022 81.9057 283.942 81.5584 283.942C81.1757 283.942 80.8446 284.037 80.5651 284.226C80.2883 284.414 80.0753 284.658 79.926 284.959C79.7767 285.26 79.7021 285.583 79.7021 285.928V286.482C79.7021 286.954 79.7835 287.354 79.9464 287.683C80.1119 288.008 80.3412 288.257 80.6343 288.427C80.9274 288.596 81.268 288.68 81.6561 288.68C81.9084 288.68 82.1364 288.645 82.3399 288.574C82.5462 288.501 82.7239 288.392 82.8732 288.248C83.0225 288.102 83.1378 287.92 83.2192 287.703L84.1473 287.963C84.0496 288.278 83.8855 288.555 83.6548 288.794C83.4241 289.03 83.1392 289.214 82.7999 289.347C82.4607 289.478 82.0794 289.543 81.6561 289.543ZM89.9061 284.56L89.0431 284.805C88.9889 284.661 88.9088 284.521 88.803 284.385C88.6998 284.247 88.5587 284.133 88.3796 284.043C88.2005 283.954 87.9712 283.909 87.6917 283.909C87.309 283.909 86.9901 283.997 86.735 284.174C86.4826 284.347 86.3565 284.568 86.3565 284.837C86.3565 285.076 86.4433 285.265 86.617 285.403C86.7907 285.541 87.062 285.657 87.4311 285.749L88.3593 285.977C88.9183 286.113 89.3349 286.32 89.609 286.6C89.8831 286.877 90.0201 287.233 90.0201 287.67C90.0201 288.029 89.917 288.349 89.7107 288.631C89.5072 288.913 89.2222 289.136 88.8559 289.299C88.4895 289.461 88.0634 289.543 87.5777 289.543C86.9399 289.543 86.4121 289.404 85.9942 289.128C85.5762 288.851 85.3116 288.446 85.2004 287.915L86.1122 287.687C86.1991 288.023 86.3632 288.276 86.6048 288.444C86.849 288.612 87.1679 288.696 87.5614 288.696C88.0092 288.696 88.3647 288.601 88.6279 288.411C88.8939 288.219 89.0269 287.988 89.0269 287.719C89.0269 287.502 88.9509 287.32 88.7989 287.174C88.6469 287.024 88.4135 286.913 88.0987 286.84L87.0566 286.596C86.484 286.46 86.0634 286.25 85.7947 285.965C85.5287 285.677 85.3958 285.317 85.3958 284.886C85.3958 284.533 85.4948 284.221 85.6929 283.95C85.8937 283.678 86.1665 283.465 86.5111 283.311C86.8585 283.156 87.252 283.079 87.6917 283.079C88.3104 283.079 88.7962 283.214 89.149 283.486C89.5045 283.757 89.7569 284.115 89.9061 284.56ZM93.9562 283.16V283.974H90.7159V283.16H93.9562ZM91.6603 281.662H92.621V287.621C92.621 287.893 92.6604 288.096 92.7391 288.232C92.8205 288.365 92.9236 288.455 93.0485 288.501C93.176 288.544 93.3103 288.566 93.4515 288.566C93.5573 288.566 93.6441 288.56 93.712 288.55C93.7798 288.536 93.8341 288.525 93.8748 288.517L94.0702 289.38C94.0051 289.404 93.9142 289.429 93.7975 289.453C93.6808 289.48 93.5329 289.494 93.3538 289.494C93.0824 289.494 92.8164 289.436 92.5559 289.319C92.2981 289.202 92.0837 289.025 91.9127 288.786C91.7445 288.547 91.6603 288.246 91.6603 287.882V281.662ZM95.1721 289.413V283.16H96.1328V289.413H95.1721ZM95.6606 282.118C95.4733 282.118 95.3118 282.054 95.1761 281.927C95.0432 281.799 94.9767 281.646 94.9767 281.467C94.9767 281.287 95.0432 281.134 95.1761 281.007C95.3118 280.879 95.4733 280.815 95.6606 280.815C95.8478 280.815 96.0079 280.879 96.1409 281.007C96.2766 281.134 96.3444 281.287 96.3444 281.467C96.3444 281.646 96.2766 281.799 96.1409 281.927C96.0079 282.054 95.8478 282.118 95.6606 282.118ZM98.6238 285.651V289.413H97.6631V283.16H98.5912V284.137H98.6726C98.8192 283.819 99.0417 283.564 99.3402 283.372C99.6387 283.176 100.024 283.079 100.496 283.079C100.92 283.079 101.29 283.165 101.608 283.339C101.925 283.51 102.172 283.771 102.348 284.121C102.525 284.468 102.613 284.908 102.613 285.44V289.413H101.652V285.505C101.652 285.013 101.525 284.631 101.27 284.357C101.015 284.08 100.665 283.942 100.219 283.942C99.9128 283.942 99.6387 284.008 99.3972 284.141C99.1584 284.274 98.9698 284.468 98.8314 284.723C98.693 284.978 98.6238 285.288 98.6238 285.651ZM106.663 291.888C106.199 291.888 105.8 291.828 105.466 291.708C105.133 291.592 104.854 291.437 104.632 291.244C104.412 291.054 104.237 290.851 104.107 290.634L104.872 290.096C104.959 290.21 105.069 290.341 105.202 290.487C105.335 290.637 105.517 290.765 105.747 290.874C105.981 290.985 106.286 291.041 106.663 291.041C107.168 291.041 107.585 290.919 107.913 290.675C108.241 290.43 108.405 290.048 108.405 289.527V288.257H108.324C108.253 288.37 108.153 288.512 108.023 288.68C107.895 288.845 107.711 288.993 107.469 289.124C107.23 289.251 106.907 289.315 106.5 289.315C105.996 289.315 105.542 289.195 105.141 288.957C104.742 288.718 104.426 288.37 104.192 287.915C103.962 287.459 103.846 286.905 103.846 286.254C103.846 285.613 103.959 285.056 104.184 284.581C104.409 284.103 104.723 283.734 105.124 283.473C105.526 283.21 105.99 283.079 106.517 283.079C106.924 283.079 107.247 283.146 107.485 283.282C107.727 283.415 107.912 283.567 108.039 283.738C108.169 283.906 108.27 284.045 108.34 284.153H108.438V283.16H109.366V289.592C109.366 290.129 109.244 290.566 109 290.902C108.758 291.242 108.433 291.49 108.023 291.647C107.616 291.808 107.163 291.888 106.663 291.888ZM106.631 288.452C107.016 288.452 107.342 288.364 107.608 288.187C107.874 288.011 108.076 287.757 108.214 287.426C108.353 287.095 108.422 286.699 108.422 286.237C108.422 285.787 108.354 285.389 108.218 285.045C108.083 284.7 107.882 284.43 107.616 284.235C107.35 284.039 107.021 283.942 106.631 283.942C106.224 283.942 105.884 284.045 105.613 284.251C105.344 284.457 105.142 284.734 105.006 285.081C104.873 285.429 104.807 285.814 104.807 286.237C104.807 286.672 104.875 287.056 105.01 287.389C105.149 287.721 105.352 287.981 105.621 288.171C105.892 288.358 106.229 288.452 106.631 288.452ZM114.02 289.413V281.076H115.03V284.788H119.475V281.076H120.485V289.413H119.475V285.684H115.03V289.413H114.02ZM122.277 289.413V281.076H125.094C125.745 281.076 126.28 281.187 126.697 281.41C127.115 281.629 127.425 281.932 127.626 282.317C127.826 282.703 127.927 283.141 127.927 283.632C127.927 284.123 127.826 284.559 127.626 284.939C127.425 285.319 127.117 285.617 126.702 285.834C126.286 286.049 125.756 286.156 125.11 286.156H122.83V285.244H125.077C125.522 285.244 125.881 285.179 126.152 285.049C126.426 284.919 126.624 284.734 126.746 284.495C126.871 284.254 126.934 283.966 126.934 283.632C126.934 283.298 126.871 283.007 126.746 282.757C126.621 282.507 126.422 282.315 126.148 282.179C125.874 282.041 125.512 281.971 125.061 281.971H123.286V289.413H122.277ZM126.201 285.668L128.252 289.413H127.08L125.061 285.668H126.201Z" fill="white"/>
<path d="M55.0569 125.732V117.395H56.0665V121.108H60.5117V117.395H61.5213V125.732H60.5117V122.003H56.0665V125.732H55.0569ZM63.3131 125.732V117.395H66.1301C66.7814 117.395 67.316 117.507 67.7339 117.729C68.1519 117.949 68.4612 118.252 68.6621 118.637C68.8629 119.022 68.9633 119.461 68.9633 119.952C68.9633 120.443 68.8629 120.879 68.6621 121.258C68.4612 121.638 68.1532 121.937 67.738 122.154C67.3228 122.368 66.7922 122.476 66.1464 122.476H63.8667V121.564H66.1138C66.5589 121.564 66.9171 121.499 67.1885 121.368C67.4626 121.238 67.6607 121.054 67.7828 120.815C67.9076 120.573 67.97 120.286 67.97 119.952C67.97 119.618 67.9076 119.326 67.7828 119.077C67.658 118.827 67.4585 118.634 67.1844 118.498C66.9103 118.36 66.548 118.291 66.0975 118.291H64.3227V125.732H63.3131ZM67.2373 121.987L69.289 125.732H68.1166L66.0975 121.987H67.2373ZM70.5679 117.395L73.0429 124.413H73.1406L75.6156 117.395H76.674L73.6128 125.732H72.5707L69.5095 117.395H70.5679Z" fill="white"/>
<path d="M208.378 51.4326L313.935 133.061L256.565 233.55L156.484 238.645L112.417 136.175L208.378 51.4326Z" stroke="#E27B73" stroke-width="0.955265" stroke-linecap="round" stroke-dasharray="3.82 3.82"/>
<path d="M207.999 51.7385L313.556 133.367L256.186 233.855L156.105 238.951L112.038 136.481L207.999 51.7385Z" fill="#EF6A62" fill-opacity="0.2"/>
<path d="M208.007 62.9572C209.748 62.9572 211.16 61.5466 211.16 59.8065C211.16 58.0664 209.748 56.6558 208.007 56.6558C206.266 56.6558 204.855 58.0664 204.855 59.8065C204.855 61.5466 206.266 62.9572 208.007 62.9572Z" fill="white"/>
<path d="M208.011 55.1274C210.595 55.1275 212.691 57.2217 212.691 59.8052C212.691 62.3885 210.595 64.4819 208.011 64.4819C205.427 64.4819 203.331 62.3885 203.331 59.8052C203.331 57.2217 205.427 55.1274 208.011 55.1274Z" stroke="#E27B73" stroke-width="0.955023"/>
<path d="M313.56 137.525C315.301 137.525 316.712 136.115 316.712 134.375C316.712 132.635 315.301 131.224 313.56 131.224C311.819 131.224 310.407 132.635 310.407 134.375C310.407 136.115 311.819 137.525 313.56 137.525Z" fill="white"/>
<path d="M313.563 129.695C316.147 129.695 318.243 131.79 318.243 134.373C318.243 136.956 316.147 139.05 313.563 139.05C310.979 139.05 308.883 136.956 308.883 134.373C308.883 131.79 310.979 129.695 313.563 129.695Z" stroke="#E27B73" stroke-width="0.955023"/>
<path d="M256.189 228.978C257.93 228.978 259.342 227.568 259.342 225.827C259.342 224.087 257.93 222.677 256.189 222.677C254.448 222.677 253.037 224.087 253.037 225.827C253.037 227.568 254.448 228.978 256.189 228.978Z" fill="white"/>
<path d="M256.193 221.148C258.777 221.149 260.873 223.243 260.873 225.826C260.872 228.409 258.777 230.503 256.193 230.503C253.609 230.503 251.513 228.41 251.513 225.826C251.513 223.243 253.609 221.148 256.193 221.148Z" stroke="#E27B73" stroke-width="0.955023"/>
<path d="M156.111 233.614C157.852 233.614 159.263 232.204 159.263 230.464C159.263 228.724 157.852 227.313 156.111 227.313C154.37 227.313 152.959 228.724 152.959 230.464C152.959 232.204 154.37 233.614 156.111 233.614Z" fill="white"/>
<path d="M156.115 225.785C158.699 225.785 160.794 227.879 160.794 230.462C160.794 233.046 158.699 235.139 156.115 235.139C153.531 235.139 151.435 233.046 151.435 230.462C151.435 227.879 153.531 225.785 156.115 225.785Z" stroke="#E27B73" stroke-width="0.955023"/>
<path d="M112.039 140.358C113.78 140.358 115.191 138.947 115.191 137.207C115.191 135.467 113.78 134.056 112.039 134.056C110.298 134.056 108.887 135.467 108.887 137.207C108.887 138.947 110.298 140.358 112.039 140.358Z" fill="white"/>
<path d="M112.043 132.529C114.627 132.529 116.722 134.624 116.722 137.207C116.722 139.79 114.627 141.884 112.043 141.884C109.459 141.884 107.363 139.79 107.363 137.207C107.363 134.624 109.459 132.529 112.043 132.529Z" stroke="#E27B73" stroke-width="0.955023"/>
</svg>
