<svg width="10" height="10" viewBox="0 0 10 10" fill="none" xmlns="http://www.w3.org/2000/svg">
<path d="M10 5.13974C9.1769 5.48057 8.51978 5.78732 8.02865 6.05999C7.54206 6.33265 7.16235 6.60304 6.88949 6.87117C6.62119 7.13929 6.35061 7.51647 6.07776 8.00273C5.80491 8.48898 5.49341 9.15474 5.14325 10H4.86357C4.50887 9.15474 4.19509 8.48898 3.92224 8.00273C3.64939 7.51647 3.38108 7.13929 3.11733 6.87117C2.84447 6.60304 2.46248 6.33265 1.97135 6.05999C1.48477 5.78732 0.827649 5.48057 0 5.13974V4.86026C0.832196 4.51943 1.49159 4.21268 1.97817 3.94001C2.4693 3.66735 2.84902 3.39696 3.11733 3.12883C3.38108 2.86071 3.64939 2.48353 3.92224 1.99727C4.19509 1.51102 4.50887 0.845262 4.86357 0H5.14325C5.49341 0.845262 5.80491 1.51102 6.07776 1.99727C6.35061 2.48353 6.62119 2.86071 6.88949 3.12883C7.15325 3.39696 7.52842 3.66735 8.01501 3.94001C8.50614 4.21268 9.1678 4.51943 10 4.86026V5.13974Z" fill="#1A555D"/>
</svg>
