<svg width="20" height="20" viewBox="0 0 20 20" fill="none" xmlns="http://www.w3.org/2000/svg">
<path d="M13.3327 6.6665C14.6588 6.6665 15.9305 7.19329 16.8682 8.13097C17.8059 9.06865 18.3327 10.3404 18.3327 11.6665V17.4998H14.9993V11.6665C14.9993 11.2245 14.8238 10.8006 14.5112 10.488C14.1986 10.1754 13.7747 9.99984 13.3327 9.99984C12.8907 9.99984 12.4667 10.1754 12.1542 10.488C11.8416 10.8006 11.666 11.2245 11.666 11.6665V17.4998H8.33268V11.6665C8.33268 10.3404 8.85947 9.06865 9.79715 8.13097C10.7348 7.19329 12.0066 6.6665 13.3327 6.6665Z" stroke="#2D2700" stroke-opacity="0.5" stroke-linecap="round" stroke-linejoin="round"/>
<path d="M4.99935 7.49984H1.66602V17.4998H4.99935V7.49984Z" stroke="#2D2700" stroke-opacity="0.5" stroke-linecap="round" stroke-linejoin="round"/>
<path d="M3.33268 4.99984C4.25316 4.99984 4.99935 4.25365 4.99935 3.33317C4.99935 2.4127 4.25316 1.6665 3.33268 1.6665C2.41221 1.6665 1.66602 2.4127 1.66602 3.33317C1.66602 4.25365 2.41221 4.99984 3.33268 4.99984Z" stroke="#2D2700" stroke-opacity="0.5" stroke-linecap="round" stroke-linejoin="round"/>
</svg>
