<svg width="20" height="20" viewBox="0 0 20 20" fill="none" xmlns="http://www.w3.org/2000/svg">
<path d="M13.3346 6.66675C14.6607 6.66675 15.9325 7.19353 16.8702 8.13121C17.8079 9.0689 18.3346 10.3407 18.3346 11.6667V17.5001H15.0013V11.6667C15.0013 11.2247 14.8257 10.8008 14.5131 10.4882C14.2006 10.1757 13.7767 10.0001 13.3346 10.0001C12.8926 10.0001 12.4687 10.1757 12.1561 10.4882C11.8436 10.8008 11.668 11.2247 11.668 11.6667V17.5001H8.33464V11.6667C8.33464 10.3407 8.86142 9.0689 9.7991 8.13121C10.7368 7.19353 12.0086 6.66675 13.3346 6.66675Z" stroke="#2D2700" stroke-opacity="0.5" stroke-width="1.5" stroke-linecap="round" stroke-linejoin="round"/>
<path d="M5.0013 7.50008H1.66797V17.5001H5.0013V7.50008Z" stroke="#2D2700" stroke-opacity="0.5" stroke-width="1.5" stroke-linecap="round" stroke-linejoin="round"/>
<path d="M3.33464 5.00008C4.25511 5.00008 5.0013 4.25389 5.0013 3.33341C5.0013 2.41294 4.25511 1.66675 3.33464 1.66675C2.41416 1.66675 1.66797 2.41294 1.66797 3.33341C1.66797 4.25389 2.41416 5.00008 3.33464 5.00008Z" stroke="#2D2700" stroke-opacity="0.5" stroke-width="1.5" stroke-linecap="round" stroke-linejoin="round"/>
</svg>
