<svg width="197" height="110" viewBox="0 0 197 110" fill="none" xmlns="http://www.w3.org/2000/svg">
<mask id="path-1-inside-1_1_69" fill="white">
<path d="M0 12C0 5.37258 5.37258 0 12 0H184.64C191.267 0 196.64 5.37258 196.64 12V98C196.64 104.627 191.267 110 184.64 110H12C5.37258 110 0 104.627 0 98V12Z"/>
</mask>
<path d="M12 0V0.8H184.64V0V-0.8H12V0ZM196.64 12H195.84V98H196.64H197.44V12H196.64ZM184.64 110V109.2H12V110V110.8H184.64V110ZM0 98H0.8V12H0H-0.8V98H0ZM12 110V109.2C5.81441 109.2 0.8 104.186 0.8 98H0H-0.8C-0.8 105.069 4.93075 110.8 12 110.8V110ZM196.64 98H195.84C195.84 104.186 190.826 109.2 184.64 109.2V110V110.8C191.709 110.8 197.44 105.069 197.44 98H196.64ZM184.64 0V0.8C190.826 0.8 195.84 5.81441 195.84 12H196.64H197.44C197.44 4.93076 191.709 -0.8 184.64 -0.8V0ZM12 0V-0.8C4.93075 -0.8 -0.8 4.93076 -0.8 12H0H0.8C0.8 5.81441 5.81441 0.8 12 0.8V0Z" fill="#DFDFDF" mask="url(#path-1-inside-1_1_69)"/>
<g clip-path="url(#clip0_1_69)">
<mask id="mask0_1_69" style="mask-type:luminance" maskUnits="userSpaceOnUse" x="68" y="25" width="61" height="60">
<path d="M128.32 25H68.32V85H128.32V25Z" fill="white"/>
</mask>
<g mask="url(#mask0_1_69)">
<path d="M123.386 81.6125C123.386 83.4833 121.889 84.9998 120.042 84.9998H102.486V63.8291H123.386V81.6125Z" fill="#167C71"/>
<path d="M68.32 32.5751C68.32 30.7043 69.8172 29.1877 71.664 29.1877H89.2203V50.3584H68.32V32.5751Z" fill="#167C71"/>
<path d="M71.664 85.0001C69.8172 85.0001 68.32 83.4835 68.32 81.6127L68.32 63.8293H89.2202V85.0001H71.664Z" fill="#167C71"/>
<path d="M120.117 34.0259C115.586 34.0259 111.914 37.6742 111.914 42.1747C111.914 46.6753 115.586 50.3237 120.117 50.3237C124.647 50.3237 128.32 46.6753 128.32 42.1747C128.32 37.6742 124.647 34.0259 120.117 34.0259Z" fill="#FF5A5F"/>
<path d="M110.715 25C106.17 25 102.486 28.6484 102.486 33.1489C102.486 37.6494 106.17 41.2979 110.715 41.2979C115.26 41.2979 118.944 37.6494 118.944 33.1489C118.944 28.6484 115.26 25 110.715 25Z" fill="#FF5A5F"/>
<path d="M120.09 50.3235L112.489 40.4017L102.486 33.1489V50.3235H120.09Z" fill="#FF5A5F"/>
</g>
</g>
<defs>
<clipPath id="clip0_1_69">
<rect width="60" height="60" fill="white" transform="translate(68.32 25)"/>
</clipPath>
</defs>
</svg>
