<svg width="531" height="133" viewBox="0 0 531 133" fill="none" xmlns="http://www.w3.org/2000/svg">
<path d="M0 12C0 5.3726 5.37258 0 12 0H518.8C525.427 0 530.8 5.37258 530.8 12V120.8C530.8 127.427 525.427 132.8 518.8 132.8H12C5.37255 132.8 0 127.427 0 120.8V12Z" fill="#FDFBEF"/>
<path d="M210.712 85.9412C210.712 87.3404 209.578 88.4746 208.179 88.4746H194.878L194.878 72.6406L210.712 72.6406V85.9412Z" fill="#216A73"/>
<path d="M168.994 49.2649C168.994 47.8657 170.128 46.7315 171.527 46.7315H184.828V62.5654H168.994V49.2649Z" fill="#216A73"/>
<path d="M171.527 88.4746C170.128 88.4746 168.994 87.3404 168.994 85.9412L168.994 72.6406H184.828L184.828 88.4746H171.527Z" fill="#216A73"/>
<path d="M208.235 50.35C204.803 50.35 202.02 53.0787 202.02 56.4447C202.02 59.8107 204.803 62.5394 208.235 62.5394C211.667 62.5394 214.45 59.8107 214.45 56.4447C214.45 53.0787 211.667 50.35 208.235 50.35Z" fill="#FF5A5F"/>
<path d="M201.113 43.5995C197.67 43.5995 194.878 46.3282 194.878 49.6942C194.878 53.0602 197.67 55.789 201.113 55.789C204.556 55.789 207.347 53.0602 207.347 49.6942C207.347 46.3282 204.556 43.5995 201.113 43.5995Z" fill="#FF5A5F"/>
<path d="M208.215 62.5394L202.457 55.1187L194.878 49.6942V62.5394H208.215Z" fill="#FF5A5F"/>
<path d="M231.661 88.4746V47.1795H256.583V51.6155H236.662V65.5688H255.293V70.0047H236.662V84.0386H256.906V88.4746H231.661Z" fill="#216A73"/>
<path d="M288.573 57.5033L277.12 88.4746H272.281L260.828 57.5033H265.99L274.539 82.1836H274.862L283.411 57.5033H288.573Z" fill="#FF5A5F"/>
<path d="M293.151 88.4746V57.5033H297.91V88.4746H293.151ZM295.571 52.3414C294.643 52.3414 293.843 52.0255 293.171 51.3937C292.512 50.7619 292.183 50.0024 292.183 49.1152C292.183 48.228 292.512 47.4685 293.171 46.8367C293.843 46.205 294.643 45.8891 295.571 45.8891C296.498 45.8891 297.291 46.205 297.95 46.8367C298.622 47.4685 298.958 48.228 298.958 49.1152C298.958 50.0024 298.622 50.7619 297.95 51.3937C297.291 52.0255 296.498 52.3414 295.571 52.3414Z" fill="#216A73"/>
<path d="M316.617 89.1199C314.036 89.1199 311.757 88.4679 309.781 87.164C307.805 85.8466 306.259 83.9916 305.144 81.5988C304.028 79.1926 303.47 76.3496 303.47 73.0696C303.47 69.8166 304.028 66.9936 305.144 64.6009C306.259 62.2081 307.812 60.3598 309.801 59.0559C311.791 57.752 314.09 57.1 316.697 57.1C318.714 57.1 320.307 57.4361 321.476 58.1082C322.659 58.7669 323.56 59.5197 324.178 60.3665C324.81 61.2 325.301 61.8855 325.65 62.4232H326.053V47.1795H330.812V88.4746H326.215V83.716H325.65C325.301 84.2806 324.803 84.993 324.158 85.8534C323.513 86.7002 322.592 87.4597 321.395 88.1318C320.199 88.7905 318.606 89.1199 316.617 89.1199ZM317.262 84.8452C319.171 84.8452 320.784 84.3478 322.101 83.3531C323.419 82.3449 324.42 80.9536 325.106 79.1792C325.791 77.3914 326.134 75.3279 326.134 72.989C326.134 70.6769 325.798 68.6538 325.126 66.9197C324.454 65.1722 323.459 63.8145 322.142 62.8467C320.824 61.8654 319.198 61.3747 317.262 61.3747C315.246 61.3747 313.565 61.8922 312.221 62.9273C310.89 63.9489 309.889 65.3402 309.217 67.1012C308.558 68.8487 308.229 70.8113 308.229 72.989C308.229 75.1935 308.565 77.1964 309.237 78.9977C309.922 80.7856 310.931 82.2105 312.261 83.2724C313.606 84.3209 315.272 84.8452 317.262 84.8452Z" fill="#216A73"/>
<path d="M347.599 89.2005C345.636 89.2005 343.855 88.8308 342.255 88.0915C340.656 87.3387 339.385 86.2566 338.444 84.8452C337.503 83.4203 337.033 81.6996 337.033 79.6833C337.033 77.9089 337.382 76.4705 338.081 75.3683C338.78 74.2525 339.715 73.3788 340.884 72.747C342.054 72.1152 343.344 71.6447 344.755 71.3355C346.18 71.0129 347.612 70.7575 349.05 70.5693C350.932 70.3274 352.458 70.1459 353.627 70.0249C354.81 69.8905 355.671 69.6687 356.208 69.3595C356.76 69.0503 357.035 68.5126 357.035 67.7464V67.5851C357.035 65.5956 356.491 64.0498 355.402 62.9475C354.326 61.8452 352.693 61.2941 350.502 61.2941C348.23 61.2941 346.449 61.7914 345.159 62.7862C343.868 63.7809 342.961 64.8429 342.437 65.972L337.92 64.3589C338.727 62.477 339.802 61.0118 341.146 59.9633C342.504 58.9013 343.983 58.162 345.582 57.7453C347.195 57.3151 348.781 57.1 350.341 57.1C351.336 57.1 352.478 57.221 353.769 57.463C355.072 57.6915 356.329 58.1687 357.539 58.8946C358.762 59.6205 359.777 60.716 360.584 62.1813C361.39 63.6465 361.794 65.6091 361.794 68.069V88.4746H357.035V84.2806H356.793C356.471 84.9527 355.933 85.6719 355.18 86.4381C354.427 87.2043 353.426 87.8563 352.176 88.394C350.926 88.9317 349.4 89.2005 347.599 89.2005ZM348.324 84.9258C350.206 84.9258 351.793 84.5562 353.083 83.8168C354.387 83.0775 355.368 82.1231 356.027 80.9536C356.699 79.7841 357.035 78.5541 357.035 77.2637V72.9083C356.833 73.1503 356.39 73.3721 355.704 73.5737C355.032 73.7619 354.253 73.9299 353.365 74.0778C352.492 74.2122 351.638 74.3332 350.805 74.4407C349.985 74.5348 349.319 74.6155 348.808 74.6827C347.572 74.844 346.416 75.1061 345.34 75.4691C344.278 75.8186 343.418 76.3496 342.759 77.062C342.114 77.761 341.791 78.7154 341.791 79.9253C341.791 81.5787 342.403 82.8288 343.626 83.6757C344.863 84.5091 346.429 84.9258 348.324 84.9258Z" fill="#216A73"/>
</svg>
