<svg width="531" height="133" viewBox="0 0 531 133" fill="none" xmlns="http://www.w3.org/2000/svg">
<path d="M0 12C0 5.3726 5.37258 0 12 0H518.8C525.427 0 530.8 5.37258 530.8 12V120.8C530.8 127.427 525.427 132.8 518.8 132.8H12C5.37255 132.8 0 127.427 0 120.8V12Z" fill="#216A73"/>
<path d="M210.714 85.9407C210.714 87.3398 209.579 88.4741 208.18 88.4741H194.88L194.88 72.6405L210.714 72.6405V85.9407Z" fill="white"/>
<path d="M168.996 49.2653C168.996 47.8661 170.13 46.7319 171.529 46.7319H184.83V62.5655H168.996V49.2653Z" fill="white"/>
<path d="M171.529 88.4741C170.13 88.4741 168.996 87.3398 168.996 85.9407L168.996 72.6405H184.83L184.83 88.4741H171.529Z" fill="white"/>
<path d="M208.236 50.3503C204.804 50.3503 202.022 53.079 202.022 56.4449C202.022 59.8109 204.804 62.5395 208.236 62.5395C211.668 62.5395 214.451 59.8109 214.451 56.4449C214.451 53.079 211.668 50.3503 208.236 50.3503Z" fill="white"/>
<path d="M201.114 43.6C197.671 43.6 194.88 46.3286 194.88 49.6946C194.88 53.0605 197.671 55.7892 201.114 55.7892C204.557 55.7892 207.348 53.0605 207.348 49.6946C207.348 46.3286 204.557 43.6 201.114 43.6Z" fill="white"/>
<path d="M208.217 62.5395L202.458 55.1189L194.88 49.6946V62.5395H208.217Z" fill="white"/>
<path d="M231.662 88.4741V47.1799H256.584V51.6158H236.662V65.5687H255.293V70.0046H236.662V84.0382H256.906V88.4741H231.662Z" fill="white"/>
<path d="M288.573 57.5035L277.12 88.4741H272.281L260.828 57.5035H265.99L274.539 82.1832H274.862L283.411 57.5035H288.573Z" fill="white"/>
<path d="M293.15 88.4741V57.5035H297.909V88.4741H293.15ZM295.57 52.3417C294.642 52.3417 293.843 52.0258 293.17 51.394C292.512 50.7622 292.182 50.0028 292.182 49.1156C292.182 48.2284 292.512 47.4689 293.17 46.8371C293.843 46.2054 294.642 45.8895 295.57 45.8895C296.497 45.8895 297.29 46.2054 297.949 46.8371C298.621 47.4689 298.957 48.2284 298.957 49.1156C298.957 50.0028 298.621 50.7622 297.949 51.394C297.29 52.0258 296.497 52.3417 295.57 52.3417Z" fill="white"/>
<path d="M316.616 89.1193C314.035 89.1193 311.756 88.4674 309.78 87.1635C307.804 85.8461 306.258 83.9911 305.143 81.5984C304.027 79.1923 303.469 76.3493 303.469 73.0694C303.469 69.8164 304.027 66.9936 305.143 64.6009C306.258 62.2082 307.811 60.3599 309.8 59.056C311.79 57.7521 314.088 57.1002 316.696 57.1002C318.712 57.1002 320.305 57.4363 321.475 58.1084C322.658 58.767 323.558 59.5198 324.177 60.3666C324.808 61.2 325.299 61.8856 325.649 62.4233H326.052V47.1799H330.81V88.4741H326.213V83.7156H325.649C325.299 84.2801 324.802 84.9926 324.157 85.8529C323.511 86.6997 322.591 87.4592 321.394 88.1313C320.198 88.79 318.605 89.1193 316.616 89.1193ZM317.261 84.8447C319.17 84.8447 320.783 84.3474 322.1 83.3526C323.417 82.3445 324.419 80.9532 325.104 79.1789C325.79 77.3911 326.133 75.3277 326.133 72.9888C326.133 70.6767 325.796 68.6537 325.124 66.9197C324.452 65.1722 323.458 63.8145 322.14 62.8467C320.823 61.8654 319.196 61.3748 317.261 61.3748C315.244 61.3748 313.564 61.8923 312.22 62.9274C310.889 63.949 309.888 65.3402 309.216 67.1011C308.557 68.8486 308.228 70.8111 308.228 72.9888C308.228 75.1933 308.564 77.1961 309.236 78.9974C309.921 80.7852 310.93 82.2101 312.26 83.272C313.604 84.3205 315.271 84.8447 317.261 84.8447Z" fill="white"/>
<path d="M347.597 89.2C345.634 89.2 343.853 88.8303 342.253 88.091C340.654 87.3382 339.384 86.2561 338.443 84.8447C337.502 83.4198 337.031 81.6993 337.031 79.6829C337.031 77.9086 337.381 76.4703 338.08 75.368C338.779 74.2523 339.713 73.3786 340.882 72.7468C342.052 72.115 343.342 71.6446 344.754 71.3354C346.178 71.0128 347.61 70.7574 349.048 70.5692C350.93 70.3272 352.456 70.1458 353.625 70.0248C354.808 69.8904 355.669 69.6686 356.206 69.3594C356.757 69.0502 357.033 68.5125 357.033 67.7463V67.585C357.033 65.5956 356.489 64.0498 355.4 62.9475C354.324 61.8453 352.691 61.2941 350.5 61.2941C348.228 61.2941 346.447 61.7915 345.157 62.7862C343.866 63.7809 342.959 64.8429 342.435 65.972L337.918 64.3589C338.725 62.477 339.8 61.0119 341.144 59.9634C342.502 58.9014 343.981 58.1621 345.58 57.7454C347.193 57.3153 348.78 57.1002 350.339 57.1002C351.334 57.1002 352.476 57.2212 353.767 57.4631C355.07 57.6916 356.327 58.1688 357.537 58.8947C358.76 59.6206 359.775 60.7161 360.582 62.1813C361.388 63.6465 361.792 65.6091 361.792 68.069V88.4741H357.033V84.2801H356.791C356.468 84.9522 355.931 85.6714 355.178 86.4376C354.425 87.2038 353.424 87.8557 352.174 88.3934C350.924 88.9311 349.398 89.2 347.597 89.2ZM348.322 84.9254C350.204 84.9254 351.791 84.5557 353.081 83.8164C354.385 83.0771 355.366 82.1227 356.025 80.9532C356.697 79.7838 357.033 78.5538 357.033 77.2634V72.9081C356.831 73.1501 356.388 73.3719 355.702 73.5735C355.03 73.7617 354.25 73.9297 353.363 74.0776C352.49 74.212 351.636 74.333 350.803 74.4405C349.983 74.5346 349.317 74.6153 348.806 74.6825C347.57 74.8438 346.414 75.1059 345.338 75.4688C344.276 75.8183 343.416 76.3493 342.757 77.0617C342.112 77.7607 341.79 78.7151 341.79 79.9249C341.79 81.5783 342.401 82.8284 343.624 83.6752C344.861 84.5087 346.427 84.9254 348.322 84.9254Z" fill="white"/>
</svg>
