<svg width="261" height="194" viewBox="0 0 261 194" fill="none" xmlns="http://www.w3.org/2000/svg">
<path d="M130.506 104.924V28.0251" stroke="white" stroke-opacity="0.4" stroke-width="0.523077"/>
<path d="M130.506 104.924L203.767 81.1611" stroke="white" stroke-opacity="0.4" stroke-width="0.523077"/>
<path d="M130.506 104.923L175.784 167.136" stroke="white" stroke-opacity="0.4" stroke-width="0.523077"/>
<path d="M130.508 104.923L85.2305 167.136" stroke="white" stroke-opacity="0.4" stroke-width="0.523077"/>
<path d="M130.498 104.924L57.2375 81.1611" stroke="white" stroke-opacity="0.4" stroke-width="0.523077"/>
<path d="M128.053 87.1536C129.515 86.0927 131.494 86.0927 132.957 87.1536L146.86 97.2369C148.326 98.3005 148.94 100.188 148.379 101.911L143.072 118.217C142.512 119.937 140.909 121.101 139.1 121.101H121.91C120.101 121.101 118.498 119.937 117.938 118.217L112.631 101.911C112.07 100.188 112.684 98.3005 114.15 97.2369L128.053 87.1536Z" stroke="white" stroke-opacity="0.4" stroke-width="0.537337"/>
<path d="M125.603 69.1829C128.529 67.0611 132.487 67.0611 135.412 69.1829L163.217 89.3495C166.15 91.4766 167.377 95.2519 166.256 98.697L155.641 131.309C154.522 134.749 151.315 137.077 147.698 137.077H113.318C109.7 137.077 106.494 134.749 105.375 131.309L94.7599 98.697C93.6386 95.2518 94.8659 91.4766 97.7987 89.3495L125.603 69.1829Z" stroke="white" stroke-opacity="0.4" stroke-width="0.537337"/>
<path d="M125.591 49.4349C128.516 47.3131 132.474 47.3131 135.4 49.4349L182.019 83.2475C184.952 85.3746 186.179 89.1498 185.058 92.595L167.256 147.287C166.137 150.727 162.93 153.055 159.313 153.055H101.677C98.0596 153.055 94.8532 150.727 93.7336 147.287L75.9325 92.595C74.8112 89.1498 76.0385 85.3746 78.9713 83.2475L125.591 49.4349Z" stroke="white" stroke-opacity="0.4" stroke-width="0.537337"/>
<path d="M125.593 29.6859C128.519 27.5641 132.477 27.5641 135.403 29.6859L200.836 77.1445C203.769 79.2716 204.996 83.0468 203.875 86.492L178.887 163.264C177.768 166.703 174.561 169.032 170.944 169.032H90.0519C86.4345 169.032 83.2282 166.703 82.1086 163.264L57.121 86.492C55.9997 83.0468 57.227 79.2716 60.1598 77.1445L125.593 29.6859Z" stroke="white" stroke-opacity="0.4" stroke-width="0.537337"/>
<path d="M122.261 14.8736C122.218 14.5137 122.046 14.2344 121.742 14.0355C121.439 13.8366 121.068 13.7372 120.627 13.7372C120.305 13.7372 120.024 13.7893 119.782 13.8935C119.543 13.9976 119.356 14.1409 119.221 14.3232C119.089 14.5054 119.022 14.7126 119.022 14.9446C119.022 15.1387 119.068 15.3056 119.161 15.4453C119.256 15.5826 119.376 15.6974 119.523 15.7898C119.67 15.8797 119.824 15.9543 119.985 16.0135C120.146 16.0703 120.294 16.1165 120.429 16.152L121.167 16.3509C121.357 16.4006 121.567 16.4692 121.799 16.5568C122.034 16.6444 122.257 16.764 122.47 16.9155C122.686 17.0646 122.863 17.2564 123.003 17.4908C123.143 17.7251 123.213 18.0128 123.213 18.3537C123.213 18.7467 123.11 19.1018 122.904 19.419C122.7 19.7363 122.402 19.9884 122.009 20.1754C121.618 20.3625 121.144 20.456 120.585 20.456C120.064 20.456 119.613 20.3719 119.232 20.2038C118.853 20.0357 118.555 19.8014 118.337 19.5007C118.122 19.2 118 18.8509 117.971 18.4531H118.88C118.904 18.7277 118.996 18.955 119.157 19.1349C119.321 19.3125 119.527 19.4451 119.775 19.5327C120.026 19.6179 120.296 19.6605 120.585 19.6605C120.921 19.6605 121.223 19.6061 121.49 19.4972C121.758 19.3859 121.97 19.232 122.126 19.0355C122.282 18.8366 122.36 18.6046 122.36 18.3395C122.36 18.098 122.293 17.9015 122.158 17.75C122.023 17.5985 121.845 17.4754 121.625 17.3807C121.405 17.286 121.167 17.2031 120.912 17.1321L120.017 16.8764C119.448 16.7131 118.999 16.4799 118.667 16.1768C118.336 15.8738 118.17 15.4773 118.17 14.9872C118.17 14.58 118.28 14.2249 118.5 13.9219C118.723 13.6165 119.021 13.3797 119.395 13.2116C119.772 13.0412 120.192 12.956 120.656 12.956C121.125 12.956 121.541 13.04 121.906 13.2081C122.27 13.3738 122.559 13.6011 122.772 13.8899C122.988 14.1787 123.101 14.5066 123.113 14.8736H122.261ZM126.719 14.8736V15.5838H123.892V14.8736H126.719ZM124.716 13.5668H125.554V18.7656C125.554 19.0024 125.589 19.1799 125.657 19.2983C125.728 19.4143 125.818 19.4924 125.927 19.5327C126.039 19.5705 126.156 19.5895 126.279 19.5895C126.371 19.5895 126.447 19.5848 126.506 19.5753C126.565 19.5634 126.613 19.554 126.648 19.5469L126.819 20.2997C126.762 20.321 126.682 20.3423 126.581 20.3636C126.479 20.3873 126.35 20.3991 126.194 20.3991C125.957 20.3991 125.725 20.3482 125.498 20.2464C125.273 20.1446 125.086 19.9896 124.936 19.7812C124.79 19.5729 124.716 19.3101 124.716 18.9929V13.5668ZM130.008 20.4418C129.483 20.4418 129.029 20.3258 128.648 20.0938C128.269 19.8594 127.977 19.5327 127.771 19.1136C127.567 18.6922 127.466 18.2022 127.466 17.6435C127.466 17.0848 127.567 16.5923 127.771 16.1662C127.977 15.7377 128.263 15.4039 128.63 15.1648C129 14.9233 129.431 14.8026 129.923 14.8026C130.207 14.8026 130.488 14.8499 130.765 14.9446C131.042 15.0393 131.294 15.1932 131.521 15.4062C131.748 15.617 131.929 15.8963 132.064 16.2443C132.199 16.5923 132.267 17.0208 132.267 17.5298V17.8849H128.062V17.1605H131.414C131.414 16.8527 131.353 16.5781 131.23 16.3366C131.109 16.0952 130.936 15.9046 130.711 15.7649C130.489 15.6252 130.226 15.5554 129.923 15.5554C129.589 15.5554 129.3 15.6383 129.056 15.804C128.815 15.9673 128.629 16.1804 128.499 16.4432C128.369 16.706 128.304 16.9877 128.304 17.2884V17.7713C128.304 18.1832 128.375 18.5324 128.517 18.8189C128.661 19.103 128.861 19.3196 129.117 19.4688C129.373 19.6155 129.67 19.6889 130.008 19.6889C130.228 19.6889 130.427 19.6581 130.605 19.5966C130.785 19.5327 130.94 19.438 131.07 19.3125C131.2 19.1847 131.301 19.026 131.372 18.8366L132.181 19.0639C132.096 19.3385 131.953 19.58 131.752 19.7884C131.551 19.9943 131.302 20.1553 131.006 20.2713C130.71 20.3849 130.377 20.4418 130.008 20.4418ZM133.342 22.3736V14.8736H134.151V15.7401H134.251C134.312 15.6454 134.397 15.5246 134.506 15.3778C134.618 15.2287 134.776 15.0961 134.982 14.9801C135.19 14.8617 135.472 14.8026 135.827 14.8026C136.287 14.8026 136.691 14.9174 137.042 15.147C137.392 15.3767 137.666 15.7022 137.862 16.1236C138.059 16.545 138.157 17.0421 138.157 17.6151C138.157 18.1927 138.059 18.6934 137.862 19.1172C137.666 19.5386 137.393 19.8653 137.045 20.0973C136.697 20.3269 136.296 20.4418 135.842 20.4418C135.491 20.4418 135.211 20.3838 135 20.2678C134.789 20.1494 134.627 20.0156 134.513 19.8665C134.4 19.715 134.312 19.5895 134.251 19.4901H134.18V22.3736H133.342ZM134.165 17.6009C134.165 18.0128 134.226 18.3762 134.347 18.6911C134.467 19.0036 134.644 19.2486 134.876 19.4261C135.108 19.6013 135.392 19.6889 135.728 19.6889C136.078 19.6889 136.371 19.5966 136.605 19.4119C136.842 19.2249 137.019 18.974 137.138 18.6591C137.258 18.3419 137.319 17.9891 137.319 17.6009C137.319 17.2173 137.26 16.8717 137.141 16.5639C137.025 16.2538 136.849 16.0088 136.612 15.8288C136.378 15.6465 136.083 15.5554 135.728 15.5554C135.387 15.5554 135.101 15.6418 134.869 15.8146C134.637 15.9851 134.461 16.2242 134.343 16.532C134.225 16.8374 134.165 17.1937 134.165 17.6009ZM143.099 16.0952L142.346 16.3082C142.299 16.1828 142.229 16.0608 142.137 15.9425C142.047 15.8217 141.923 15.7223 141.767 15.6442C141.611 15.5661 141.411 15.527 141.167 15.527C140.833 15.527 140.555 15.6039 140.333 15.7578C140.112 15.9093 140.002 16.1023 140.002 16.3366C140.002 16.545 140.078 16.7095 140.23 16.8303C140.381 16.951 140.618 17.0516 140.94 17.1321L141.749 17.331C142.237 17.4493 142.601 17.6304 142.84 17.8743C143.079 18.1158 143.198 18.4271 143.198 18.8082C143.198 19.1207 143.108 19.4001 142.928 19.6463C142.751 19.8925 142.502 20.0866 142.183 20.2287C141.863 20.3707 141.491 20.4418 141.068 20.4418C140.511 20.4418 140.051 20.321 139.686 20.0795C139.322 19.8381 139.091 19.4853 138.994 19.0213L139.789 18.8224C139.865 19.116 140.008 19.3362 140.219 19.483C140.432 19.6297 140.71 19.7031 141.053 19.7031C141.444 19.7031 141.754 19.6203 141.984 19.4545C142.216 19.2865 142.332 19.0852 142.332 18.8509C142.332 18.6615 142.266 18.5028 142.133 18.375C142 18.2448 141.797 18.1477 141.522 18.0838L140.613 17.8707C140.114 17.7524 139.747 17.5689 139.512 17.3203C139.28 17.0694 139.164 16.7557 139.164 16.3793C139.164 16.0715 139.251 15.7992 139.423 15.5625C139.599 15.3258 139.837 15.1399 140.137 15.005C140.44 14.87 140.784 14.8026 141.167 14.8026C141.707 14.8026 142.131 14.9209 142.438 15.1577C142.749 15.3944 142.969 15.7069 143.099 16.0952Z" fill="white"/>
<path d="M219.588 76.5C219.546 76.1402 219.373 75.8608 219.07 75.662C218.767 75.4631 218.395 75.3637 217.955 75.3637C217.633 75.3637 217.351 75.4158 217.11 75.5199C216.871 75.6241 216.684 75.7673 216.549 75.9496C216.416 76.1319 216.35 76.3391 216.35 76.5711C216.35 76.7652 216.396 76.9321 216.488 77.0718C216.583 77.2091 216.704 77.3239 216.85 77.4162C216.997 77.5062 217.151 77.5808 217.312 77.64C217.473 77.6968 217.621 77.7429 217.756 77.7785L218.495 77.9773C218.684 78.027 218.895 78.0957 219.127 78.1833C219.361 78.2709 219.585 78.3904 219.798 78.5419C220.013 78.6911 220.191 78.8829 220.331 79.1172C220.47 79.3516 220.54 79.6392 220.54 79.9802C220.54 80.3732 220.437 80.7283 220.231 81.0455C220.028 81.3627 219.729 81.6149 219.336 81.8019C218.946 81.9889 218.471 82.0824 217.912 82.0824C217.391 82.0824 216.94 81.9984 216.559 81.8303C216.181 81.6622 215.882 81.4278 215.664 81.1272C215.449 80.8265 215.327 80.4773 215.299 80.0796H216.208C216.231 80.3542 216.324 80.5815 216.485 80.7614C216.648 80.939 216.854 81.0715 217.103 81.1591C217.354 81.2444 217.623 81.287 217.912 81.287C218.248 81.287 218.55 81.2325 218.818 81.1236C219.085 81.0124 219.297 80.8585 219.453 80.662C219.61 80.4631 219.688 80.2311 219.688 79.966C219.688 79.7245 219.62 79.528 219.485 79.3765C219.35 79.2249 219.173 79.1018 218.953 79.0071C218.733 78.9124 218.495 78.8296 218.239 78.7586L217.344 78.5029C216.776 78.3395 216.326 78.1063 215.995 77.8033C215.663 77.5003 215.498 77.1037 215.498 76.6137C215.498 76.2065 215.608 75.8514 215.828 75.5483C216.05 75.2429 216.349 75.0062 216.723 74.8381C217.099 74.6677 217.519 74.5824 217.983 74.5824C218.452 74.5824 218.869 74.6665 219.233 74.8346C219.598 75.0003 219.887 75.2276 220.1 75.5164C220.315 75.8052 220.429 76.1331 220.441 76.5H219.588ZM222.513 74.6819V81.9546H221.674V74.6819H222.513ZM226.134 82.0682C225.609 82.0682 225.156 81.9522 224.774 81.7202C224.396 81.4858 224.103 81.1591 223.897 80.7401C223.694 80.3187 223.592 79.8286 223.592 79.2699C223.592 78.7112 223.694 78.2188 223.897 77.7927C224.103 77.3642 224.39 77.0303 224.757 76.7912C225.126 76.5498 225.557 76.429 226.049 76.429C226.333 76.429 226.614 76.4764 226.891 76.5711C227.168 76.6658 227.42 76.8196 227.647 77.0327C227.875 77.2434 228.056 77.5228 228.191 77.8708C228.325 78.2188 228.393 78.6473 228.393 79.1563V79.5114H224.188V78.787H227.541C227.541 78.4792 227.479 78.2046 227.356 77.9631C227.235 77.7216 227.062 77.5311 226.838 77.3914C226.615 77.2517 226.352 77.1819 226.049 77.1819C225.715 77.1819 225.427 77.2647 225.183 77.4304C224.941 77.5938 224.755 77.8069 224.625 78.0696C224.495 78.3324 224.43 78.6142 224.43 78.9148V79.3978C224.43 79.8097 224.501 80.1589 224.643 80.4454C224.787 80.7294 224.987 80.9461 225.243 81.0952C225.499 81.242 225.796 81.3154 226.134 81.3154C226.355 81.3154 226.553 81.2846 226.731 81.2231C226.911 81.1591 227.066 81.0644 227.196 80.939C227.326 80.8111 227.427 80.6525 227.498 80.4631L228.308 80.6904C228.223 80.965 228.079 81.2065 227.878 81.4148C227.677 81.6208 227.428 81.7818 227.132 81.8978C226.836 82.0114 226.504 82.0682 226.134 82.0682ZM231.755 82.0682C231.229 82.0682 230.776 81.9522 230.395 81.7202C230.016 81.4858 229.724 81.1591 229.518 80.7401C229.314 80.3187 229.212 79.8286 229.212 79.2699C229.212 78.7112 229.314 78.2188 229.518 77.7927C229.724 77.3642 230.01 77.0303 230.377 76.7912C230.746 76.5498 231.177 76.429 231.67 76.429C231.954 76.429 232.234 76.4764 232.511 76.5711C232.788 76.6658 233.04 76.8196 233.268 77.0327C233.495 77.2434 233.676 77.5228 233.811 77.8708C233.946 78.2188 234.013 78.6473 234.013 79.1563V79.5114H229.809V78.787H233.161C233.161 78.4792 233.099 78.2046 232.976 77.9631C232.856 77.7216 232.683 77.5311 232.458 77.3914C232.235 77.2517 231.973 77.1819 231.67 77.1819C231.336 77.1819 231.047 77.2647 230.803 77.4304C230.562 77.5938 230.376 77.8069 230.246 78.0696C230.115 78.3324 230.05 78.6142 230.05 78.9148V79.3978C230.05 79.8097 230.121 80.1589 230.263 80.4454C230.408 80.7294 230.608 80.9461 230.863 81.0952C231.119 81.242 231.416 81.3154 231.755 81.3154C231.975 81.3154 232.174 81.2846 232.351 81.2231C232.531 81.1591 232.686 81.0644 232.817 80.939C232.947 80.8111 233.047 80.6525 233.118 80.4631L233.928 80.6904C233.843 80.965 233.7 81.2065 233.498 81.4148C233.297 81.6208 233.049 81.7818 232.753 81.8978C232.457 82.0114 232.124 82.0682 231.755 82.0682ZM235.088 84V76.5H235.898V77.3665H235.997C236.059 77.2718 236.144 77.1511 236.253 77.0043C236.364 76.8552 236.523 76.7226 236.729 76.6066C236.937 76.4882 237.219 76.429 237.574 76.429C238.033 76.429 238.438 76.5438 238.788 76.7735C239.139 77.0031 239.412 77.3286 239.609 77.75C239.805 78.1714 239.903 78.6686 239.903 79.2415C239.903 79.8192 239.805 80.3199 239.609 80.7437C239.412 81.1651 239.14 81.4918 238.792 81.7238C238.444 81.9534 238.043 82.0682 237.588 82.0682C237.238 82.0682 236.957 82.0102 236.747 81.8942C236.536 81.7758 236.374 81.6421 236.26 81.4929C236.146 81.3414 236.059 81.216 235.997 81.1165H235.926V84H235.088ZM235.912 79.2273C235.912 79.6392 235.972 80.0026 236.093 80.3175C236.214 80.63 236.39 80.875 236.622 81.0526C236.854 81.2278 237.138 81.3154 237.475 81.3154C237.825 81.3154 238.117 81.2231 238.352 81.0384C238.588 80.8514 238.766 80.6004 238.884 80.2856C239.005 79.9683 239.065 79.6156 239.065 79.2273C239.065 78.8438 239.006 78.4982 238.888 78.1904C238.772 77.8803 238.595 77.6352 238.359 77.4553C238.124 77.273 237.83 77.1819 237.475 77.1819C237.134 77.1819 236.847 77.2683 236.615 77.4411C236.383 77.6116 236.208 77.8507 236.09 78.1584C235.971 78.4638 235.912 78.8201 235.912 79.2273Z" fill="white"/>
<path d="M184.968 179.153C184.925 178.793 184.752 178.514 184.449 178.315C184.146 178.116 183.775 178.017 183.334 178.017C183.012 178.017 182.731 178.069 182.489 178.173C182.25 178.277 182.063 178.42 181.928 178.602C181.795 178.785 181.729 178.992 181.729 179.224C181.729 179.418 181.775 179.585 181.868 179.725C181.962 179.862 182.083 179.977 182.23 180.069C182.377 180.159 182.531 180.234 182.692 180.293C182.853 180.35 183 180.396 183.135 180.431L183.874 180.63C184.063 180.68 184.274 180.749 184.506 180.836C184.741 180.924 184.964 181.043 185.177 181.195C185.393 181.344 185.57 181.536 185.71 181.77C185.85 182.004 185.92 182.292 185.92 182.633C185.92 183.026 185.817 183.381 185.611 183.698C185.407 184.016 185.109 184.268 184.716 184.455C184.325 184.642 183.85 184.735 183.292 184.735C182.771 184.735 182.32 184.651 181.939 184.483C181.56 184.315 181.262 184.081 181.044 183.78C180.828 183.479 180.706 183.13 180.678 182.732H181.587C181.611 183.007 181.703 183.234 181.864 183.414C182.027 183.592 182.233 183.724 182.482 183.812C182.733 183.897 183.003 183.94 183.292 183.94C183.628 183.94 183.93 183.885 184.197 183.776C184.465 183.665 184.677 183.511 184.833 183.315C184.989 183.116 185.067 182.884 185.067 182.619C185.067 182.377 185 182.181 184.865 182.029C184.73 181.878 184.552 181.755 184.332 181.66C184.112 181.565 183.874 181.482 183.618 181.411L182.723 181.156C182.155 180.992 181.706 180.759 181.374 180.456C181.043 180.153 180.877 179.757 180.877 179.267C180.877 178.859 180.987 178.504 181.207 178.201C181.43 177.896 181.728 177.659 182.102 177.491C182.478 177.32 182.899 177.235 183.363 177.235C183.831 177.235 184.248 177.319 184.613 177.487C184.977 177.653 185.266 177.88 185.479 178.169C185.695 178.458 185.808 178.786 185.82 179.153H184.968ZM189.426 179.153V179.863H186.599V179.153H189.426ZM187.423 177.846H188.261V183.045C188.261 183.282 188.296 183.459 188.364 183.578C188.435 183.694 188.525 183.772 188.634 183.812C188.745 183.85 188.863 183.869 188.986 183.869C189.078 183.869 189.154 183.864 189.213 183.855C189.272 183.843 189.319 183.833 189.355 183.826L189.525 184.579C189.469 184.6 189.389 184.622 189.288 184.643C189.186 184.667 189.057 184.678 188.9 184.678C188.664 184.678 188.432 184.628 188.204 184.526C187.98 184.424 187.792 184.269 187.643 184.061C187.497 183.852 187.423 183.589 187.423 183.272V177.846ZM190.487 184.607V179.153H191.296V179.977H191.353C191.453 179.707 191.633 179.488 191.893 179.32C192.153 179.152 192.447 179.068 192.774 179.068C192.835 179.068 192.912 179.069 193.004 179.071C193.097 179.074 193.167 179.077 193.214 179.082V179.934C193.186 179.927 193.12 179.916 193.019 179.902C192.919 179.886 192.814 179.877 192.703 179.877C192.437 179.877 192.201 179.933 191.992 180.044C191.786 180.153 191.623 180.305 191.502 180.499C191.384 180.691 191.325 180.91 191.325 181.156V184.607H190.487ZM196.128 184.721C195.603 184.721 195.149 184.605 194.768 184.373C194.389 184.139 194.097 183.812 193.891 183.393C193.687 182.972 193.586 182.481 193.586 181.923C193.586 181.364 193.687 180.872 193.891 180.445C194.097 180.017 194.384 179.683 194.75 179.444C195.12 179.203 195.551 179.082 196.043 179.082C196.327 179.082 196.608 179.129 196.885 179.224C197.162 179.319 197.414 179.472 197.641 179.686C197.868 179.896 198.049 180.176 198.184 180.524C198.319 180.872 198.387 181.3 198.387 181.809V182.164H194.182V181.44H197.535C197.535 181.132 197.473 180.857 197.35 180.616C197.229 180.374 197.056 180.184 196.831 180.044C196.609 179.905 196.346 179.835 196.043 179.835C195.709 179.835 195.42 179.918 195.177 180.083C194.935 180.247 194.749 180.46 194.619 180.722C194.489 180.985 194.424 181.267 194.424 181.568V182.051C194.424 182.463 194.495 182.812 194.637 183.098C194.781 183.382 194.981 183.599 195.237 183.748C195.493 183.895 195.79 183.968 196.128 183.968C196.348 183.968 196.547 183.937 196.725 183.876C196.905 183.812 197.06 183.717 197.19 183.592C197.32 183.464 197.421 183.305 197.492 183.116L198.302 183.343C198.216 183.618 198.073 183.859 197.872 184.068C197.671 184.274 197.422 184.435 197.126 184.551C196.83 184.664 196.498 184.721 196.128 184.721ZM203.325 180.374L202.572 180.588C202.525 180.462 202.455 180.34 202.363 180.222C202.273 180.101 202.15 180.002 201.994 179.923C201.837 179.845 201.637 179.806 201.393 179.806C201.06 179.806 200.782 179.883 200.559 180.037C200.339 180.189 200.229 180.382 200.229 180.616C200.229 180.824 200.304 180.989 200.456 181.11C200.608 181.23 200.844 181.331 201.166 181.411L201.976 181.61C202.464 181.729 202.827 181.91 203.066 182.154C203.305 182.395 203.425 182.706 203.425 183.088C203.425 183.4 203.335 183.679 203.155 183.926C202.977 184.172 202.729 184.366 202.409 184.508C202.09 184.65 201.718 184.721 201.294 184.721C200.738 184.721 200.277 184.6 199.913 184.359C199.548 184.117 199.317 183.765 199.22 183.301L200.016 183.102C200.091 183.395 200.235 183.615 200.445 183.762C200.658 183.909 200.937 183.982 201.28 183.982C201.67 183.982 201.981 183.9 202.21 183.734C202.442 183.566 202.558 183.365 202.558 183.13C202.558 182.941 202.492 182.782 202.359 182.654C202.227 182.524 202.023 182.427 201.749 182.363L200.84 182.15C200.34 182.032 199.973 181.848 199.739 181.6C199.507 181.349 199.391 181.035 199.391 180.659C199.391 180.351 199.477 180.079 199.65 179.842C199.825 179.605 200.063 179.419 200.364 179.284C200.667 179.149 201.01 179.082 201.393 179.082C201.933 179.082 202.357 179.2 202.665 179.437C202.975 179.674 203.195 179.986 203.325 180.374ZM208.35 180.374L207.597 180.588C207.55 180.462 207.48 180.34 207.388 180.222C207.298 180.101 207.174 180.002 207.018 179.923C206.862 179.845 206.662 179.806 206.418 179.806C206.084 179.806 205.806 179.883 205.584 180.037C205.363 180.189 205.253 180.382 205.253 180.616C205.253 180.824 205.329 180.989 205.481 181.11C205.632 181.23 205.869 181.331 206.191 181.411L207 181.61C207.488 181.729 207.852 181.91 208.091 182.154C208.33 182.395 208.449 182.706 208.449 183.088C208.449 183.4 208.359 183.679 208.179 183.926C208.002 184.172 207.753 184.366 207.434 184.508C207.114 184.65 206.742 184.721 206.319 184.721C205.762 184.721 205.302 184.6 204.937 184.359C204.573 184.117 204.342 183.765 204.245 183.301L205.04 183.102C205.116 183.395 205.259 183.615 205.47 183.762C205.683 183.909 205.961 183.982 206.304 183.982C206.695 183.982 207.005 183.9 207.235 183.734C207.467 183.566 207.583 183.365 207.583 183.13C207.583 182.941 207.517 182.782 207.384 182.654C207.251 182.524 207.048 182.427 206.773 182.363L205.864 182.15C205.365 182.032 204.998 181.848 204.763 181.6C204.531 181.349 204.415 181.035 204.415 180.659C204.415 180.351 204.502 180.079 204.674 179.842C204.85 179.605 205.088 179.419 205.388 179.284C205.691 179.149 206.035 179.082 206.418 179.082C206.958 179.082 207.382 179.2 207.689 179.437C208 179.674 208.22 179.986 208.35 180.374Z" fill="white"/>
<path d="M30.4418 184.607V177.335H32.8991C33.4673 177.335 33.9337 177.432 34.2983 177.626C34.6629 177.818 34.9328 178.082 35.108 178.418C35.2831 178.754 35.3707 179.136 35.3707 179.565C35.3707 179.993 35.2831 180.373 35.108 180.705C34.9328 181.036 34.6641 181.297 34.3018 181.486C33.9396 181.673 33.4768 181.767 32.9134 181.767H30.9247V180.971H32.8849C33.2732 180.971 33.5857 180.914 33.8224 180.801C34.0616 180.687 34.2344 180.526 34.3409 180.318C34.4498 180.107 34.5043 179.856 34.5043 179.565C34.5043 179.274 34.4498 179.019 34.3409 178.801C34.232 178.584 34.058 178.415 33.8189 178.297C33.5798 178.176 33.2637 178.116 32.8707 178.116H31.3224V184.607H30.4418ZM33.8651 181.34L35.6548 184.607H34.6321L32.8707 181.34H33.8651ZM38.7529 184.721C38.2274 184.721 37.774 184.605 37.3929 184.373C37.0141 184.139 36.7217 183.812 36.5157 183.393C36.3121 182.972 36.2103 182.481 36.2103 181.923C36.2103 181.364 36.3121 180.872 36.5157 180.445C36.7217 180.017 37.0082 179.683 37.3751 179.444C37.7444 179.203 38.1753 179.082 38.6677 179.082C38.9518 179.082 39.2324 179.129 39.5093 179.224C39.7863 179.319 40.0385 179.472 40.2657 179.686C40.493 179.896 40.6741 180.176 40.8091 180.524C40.944 180.872 41.0115 181.3 41.0115 181.809V182.164H36.8069V181.44H40.1592C40.1592 181.132 40.0976 180.857 39.9745 180.616C39.8538 180.374 39.681 180.184 39.4561 180.044C39.2335 179.905 38.9708 179.835 38.6677 179.835C38.3339 179.835 38.0451 179.918 37.8012 180.083C37.5598 180.247 37.3739 180.46 37.2437 180.722C37.1135 180.985 37.0484 181.267 37.0484 181.568V182.051C37.0484 182.463 37.1194 182.812 37.2615 183.098C37.4059 183.382 37.6059 183.599 37.8616 183.748C38.1173 183.895 38.4144 183.968 38.7529 183.968C38.9731 183.968 39.172 183.937 39.3495 183.876C39.5295 183.812 39.6845 183.717 39.8147 183.592C39.9449 183.464 40.0456 183.305 40.1166 183.116L40.9262 183.343C40.841 183.618 40.6978 183.859 40.4966 184.068C40.2953 184.274 40.0467 184.435 39.7508 184.551C39.4549 184.664 39.1223 184.721 38.7529 184.721ZM45.95 180.374L45.1971 180.588C45.1498 180.462 45.0799 180.34 44.9876 180.222C44.8976 180.101 44.7745 180.002 44.6183 179.923C44.462 179.845 44.262 179.806 44.0181 179.806C43.6843 179.806 43.4062 179.883 43.1836 180.037C42.9635 180.189 42.8534 180.382 42.8534 180.616C42.8534 180.824 42.9291 180.989 43.0806 181.11C43.2322 181.23 43.4689 181.331 43.7909 181.411L44.6005 181.61C45.0882 181.729 45.4516 181.91 45.6907 182.154C45.9298 182.395 46.0494 182.706 46.0494 183.088C46.0494 183.4 45.9594 183.679 45.7795 183.926C45.602 184.172 45.3534 184.366 45.0338 184.508C44.7142 184.65 44.3425 184.721 43.9187 184.721C43.3624 184.721 42.9019 184.6 42.5373 184.359C42.1727 184.117 41.9419 183.765 41.8449 183.301L42.6403 183.102C42.7161 183.395 42.8593 183.615 43.07 183.762C43.2831 183.909 43.5612 183.982 43.9045 183.982C44.2951 183.982 44.6053 183.9 44.8349 183.734C45.0669 183.566 45.1829 183.365 45.1829 183.13C45.1829 182.941 45.1166 182.782 44.9841 182.654C44.8515 182.524 44.6479 182.427 44.3733 182.363L43.4642 182.15C42.9646 182.032 42.5977 181.848 42.3633 181.6C42.1313 181.349 42.0153 181.035 42.0153 180.659C42.0153 180.351 42.1017 180.079 42.2745 179.842C42.4497 179.605 42.6877 179.419 42.9883 179.284C43.2913 179.149 43.6346 179.082 44.0181 179.082C44.5579 179.082 44.9817 179.2 45.2895 179.437C45.5996 179.674 45.8198 179.986 45.95 180.374ZM49.4831 179.153V179.863H46.6564V179.153H49.4831ZM47.4803 177.846H48.3183V183.045C48.3183 183.282 48.3527 183.459 48.4213 183.578C48.4923 183.694 48.5823 183.772 48.6912 183.812C48.8025 183.85 48.9197 183.869 49.0428 183.869C49.1351 183.869 49.2108 183.864 49.27 183.855C49.3292 183.843 49.3766 183.833 49.4121 183.826L49.5825 184.579C49.5257 184.6 49.4464 184.622 49.3446 184.643C49.2428 184.667 49.1138 184.678 48.9575 184.678C48.7208 184.678 48.4888 184.628 48.2615 184.526C48.0366 184.424 47.8496 184.269 47.7004 184.061C47.5536 183.852 47.4803 183.589 47.4803 183.272V177.846ZM50.5438 184.607V179.153H51.3818V184.607H50.5438ZM50.9699 178.244C50.8065 178.244 50.6657 178.188 50.5473 178.077C50.4313 177.966 50.3733 177.832 50.3733 177.676C50.3733 177.519 50.4313 177.386 50.5473 177.274C50.6657 177.163 50.8065 177.107 50.9699 177.107C51.1332 177.107 51.2729 177.163 51.3889 177.274C51.5073 177.386 51.5665 177.519 51.5665 177.676C51.5665 177.832 51.5073 177.966 51.3889 178.077C51.2729 178.188 51.1332 178.244 50.9699 178.244ZM53.5549 181.326V184.607H52.7168V179.153H53.5265V180.005H53.5975C53.7253 179.728 53.9194 179.506 54.1799 179.338C54.4403 179.167 54.7765 179.082 55.1884 179.082C55.5577 179.082 55.8809 179.158 56.1578 179.309C56.4348 179.458 56.6503 179.686 56.8042 179.991C56.958 180.294 57.035 180.677 57.035 181.142V184.607H56.1969V181.198C56.1969 180.77 56.0856 180.436 55.8631 180.197C55.6406 179.955 55.3352 179.835 54.9469 179.835C54.6794 179.835 54.4403 179.893 54.2296 180.009C54.0212 180.125 53.8567 180.294 53.736 180.517C53.6152 180.739 53.5549 181.009 53.5549 181.326ZM60.5681 186.767C60.1633 186.767 59.8153 186.714 59.5241 186.61C59.2329 186.508 58.9902 186.374 58.7961 186.205C58.6043 186.04 58.4516 185.862 58.338 185.673L59.0056 185.204C59.0814 185.303 59.1772 185.417 59.2933 185.545C59.4093 185.675 59.5679 185.788 59.7691 185.882C59.9727 185.979 60.239 186.028 60.5681 186.028C61.0085 186.028 61.3719 185.921 61.6583 185.708C61.9448 185.495 62.088 185.161 62.088 184.707V183.599H62.017C61.9554 183.698 61.8678 183.821 61.7542 183.968C61.6429 184.113 61.4819 184.242 61.2712 184.355C61.0629 184.467 60.7812 184.522 60.4261 184.522C59.9857 184.522 59.5904 184.418 59.24 184.21C58.892 184.001 58.6162 183.698 58.4126 183.301C58.2113 182.903 58.1107 182.42 58.1107 181.852C58.1107 181.293 58.209 180.807 58.4055 180.392C58.602 179.976 58.8754 179.654 59.2258 179.426C59.5762 179.197 59.981 179.082 60.4403 179.082C60.7954 179.082 61.0771 179.141 61.2854 179.259C61.4961 179.375 61.6571 179.508 61.7684 179.657C61.882 179.804 61.9696 179.925 62.0312 180.019H62.1164V179.153H62.9261V184.764C62.9261 185.232 62.8195 185.614 62.6065 185.907C62.3958 186.203 62.1117 186.42 61.7542 186.557C61.3991 186.697 61.0037 186.767 60.5681 186.767ZM60.5397 183.769C60.8759 183.769 61.16 183.692 61.392 183.539C61.624 183.385 61.8004 183.163 61.9211 182.874C62.0418 182.586 62.1022 182.24 62.1022 181.838C62.1022 181.445 62.043 181.098 61.9246 180.797C61.8063 180.496 61.6311 180.261 61.3991 180.09C61.1671 179.92 60.8806 179.835 60.5397 179.835C60.1846 179.835 59.8887 179.925 59.6519 180.105C59.4175 180.285 59.2412 180.526 59.1228 180.829C59.0068 181.132 58.9488 181.468 58.9488 181.838C58.9488 182.216 59.008 182.551 59.1264 182.843C59.2471 183.131 59.4246 183.359 59.659 183.524C59.8958 183.688 60.1893 183.769 60.5397 183.769ZM66.9863 184.607V177.335H67.867V180.573H71.7448V177.335H72.6255V184.607H71.7448V181.355H67.867V184.607H66.9863ZM74.1886 184.607V177.335H76.646C77.2142 177.335 77.6806 177.432 78.0452 177.626C78.4098 177.818 78.6796 178.082 78.8548 178.418C79.03 178.754 79.1176 179.136 79.1176 179.565C79.1176 179.993 79.03 180.373 78.8548 180.705C78.6796 181.036 78.4109 181.297 78.0487 181.486C77.6865 181.673 77.2237 181.767 76.6602 181.767H74.6716V180.971H76.6318C77.0201 180.971 77.3326 180.914 77.5693 180.801C77.8084 180.687 77.9813 180.526 78.0878 180.318C78.1967 180.107 78.2511 179.856 78.2511 179.565C78.2511 179.274 78.1967 179.019 78.0878 178.801C77.9789 178.584 77.8049 178.415 77.5658 178.297C77.3267 178.176 77.0106 178.116 76.6176 178.116H75.0693V184.607H74.1886ZM77.6119 181.34L79.4017 184.607H78.379L76.6176 181.34H77.6119Z" fill="white"/>
<path d="M28.9231 81.9546V74.6819H29.8038V77.9205H33.6816V74.6819H34.5623V81.9546H33.6816V78.7017H29.8038V81.9546H28.9231ZM36.1254 81.9546V74.6819H38.5828C39.151 74.6819 39.6174 74.7789 39.982 74.9731C40.3466 75.1648 40.6164 75.4288 40.7916 75.765C40.9668 76.1011 41.0544 76.4835 41.0544 76.912C41.0544 77.3405 40.9668 77.7205 40.7916 78.0519C40.6164 78.3833 40.3477 78.6437 39.9855 78.8331C39.6233 79.0202 39.1605 79.1137 38.597 79.1137H36.6084V78.3182H38.5686C38.9569 78.3182 39.2694 78.2614 39.5061 78.1478C39.7452 78.0341 39.918 77.8732 40.0246 77.6648C40.1335 77.4541 40.1879 77.2032 40.1879 76.912C40.1879 76.6208 40.1335 76.3663 40.0246 76.1485C39.9157 75.9307 39.7417 75.7626 39.5026 75.6442C39.2635 75.5235 38.9474 75.4631 38.5544 75.4631H37.0061V81.9546H36.1254ZM39.5487 78.6875L41.3385 81.9546H40.3158L38.5544 78.6875H39.5487ZM42.4542 74.6819L44.6133 80.804H44.6985L46.8576 74.6819H47.7809L45.1104 81.9546H44.2014L41.5309 74.6819H42.4542Z" fill="white"/>
<path d="M130.737 32.2561L196.964 83.4499L160.97 146.472L98.1785 149.667L70.5305 85.4028L130.737 32.2561Z" stroke="#E27B73" stroke-width="0.537337" stroke-linecap="round" stroke-dasharray="2.15 2.15"/>
<path d="M130.499 32.4478L196.726 83.6416L160.732 146.663L97.941 149.859L70.293 85.5944L130.499 32.4478Z" fill="#EF6A62" fill-opacity="0.2"/>
<path d="M130.505 45.6179C131.597 45.6179 132.482 44.7328 132.482 43.6411C132.482 42.5493 131.597 41.6643 130.505 41.6643C129.412 41.6643 128.527 42.5493 128.527 43.6411C128.527 44.7328 129.412 45.6179 130.505 45.6179Z" fill="white"/>
<path d="M130.507 40.7368C132.111 40.737 133.411 42.0366 133.411 43.6401C133.411 45.2438 132.111 46.5442 130.507 46.5444C128.903 46.5444 127.602 45.2439 127.602 43.6401C127.602 42.0365 128.903 40.7368 130.507 40.7368Z" stroke="#E27B73" stroke-width="0.537201"/>
<path d="M196.729 87.5624C197.821 87.5624 198.706 86.6774 198.706 85.5857C198.706 84.4939 197.821 83.6089 196.729 83.6089C195.636 83.6089 194.751 84.4939 194.751 85.5857C194.751 86.6774 195.636 87.5624 196.729 87.5624Z" fill="white"/>
<path d="M196.731 82.6812C198.335 82.6813 199.635 83.981 199.635 85.5845C199.635 87.1881 198.335 88.4886 196.731 88.4888C195.127 88.4888 193.826 87.1882 193.826 85.5845C193.826 83.9808 195.127 82.6812 196.731 82.6812Z" stroke="#E27B73" stroke-width="0.537201"/>
<path d="M160.734 139.005C161.826 139.005 162.712 138.12 162.712 137.028C162.712 135.936 161.826 135.051 160.734 135.051C159.642 135.051 158.756 135.936 158.756 137.028C158.756 138.12 159.642 139.005 160.734 139.005Z" fill="white"/>
<path d="M160.737 134.124C162.341 134.124 163.641 135.423 163.641 137.027C163.641 138.63 162.341 139.931 160.737 139.931C159.132 139.931 157.831 138.631 157.831 137.027C157.831 135.423 159.132 134.124 160.737 134.124Z" stroke="#E27B73" stroke-width="0.537201"/>
<path d="M97.9446 141.613C99.0369 141.613 99.9223 140.728 99.9223 139.636C99.9223 138.544 99.0369 137.659 97.9446 137.659C96.8523 137.659 95.9668 138.544 95.9668 139.636C95.9668 140.728 96.8523 141.613 97.9446 141.613Z" fill="white"/>
<path d="M97.9473 136.731C99.5513 136.732 100.851 138.031 100.852 139.635C100.852 141.238 99.5513 142.539 97.9473 142.539C96.343 142.539 95.042 141.239 95.042 139.635C95.0421 138.031 96.3431 136.731 97.9473 136.731Z" stroke="#E27B73" stroke-width="0.537201"/>
<path d="M70.2937 89.1552C71.386 89.1552 72.2715 88.2702 72.2715 87.1784C72.2715 86.0867 71.386 85.2017 70.2937 85.2017C69.2014 85.2017 68.3159 86.0867 68.3159 87.1784C68.3159 88.2702 69.2014 89.1552 70.2937 89.1552Z" fill="white"/>
<path d="M70.2964 84.2749C71.9004 84.2751 73.2005 85.5747 73.2007 87.1782C73.2007 88.7819 71.9005 90.0823 70.2964 90.0825C68.6921 90.0825 67.3911 88.782 67.3911 87.1782C67.3913 85.5746 68.6922 84.2749 70.2964 84.2749Z" stroke="#E27B73" stroke-width="0.537201"/>
</svg>
